<svg width="68" height="64" viewBox="0 0 68 64" fill="none" xmlns="http://www.w3.org/2000/svg">
<path d="M45.9167 7.375H12.0833C9.41396 7.375 7.25 9.57627 7.25 12.2917V46.7083C7.25 49.4237 9.41396 51.625 12.0833 51.625H45.9167C48.586 51.625 50.75 49.4237 50.75 46.7083V12.2917C50.75 9.57627 48.586 7.375 45.9167 7.375Z" stroke="#0FA958" stroke-width="2" stroke-linecap="round" stroke-linejoin="round"/>
<path d="M20.542 24.5833C22.544 24.5833 24.167 22.9323 24.167 20.8958C24.167 18.8592 22.544 17.2083 20.542 17.2083C18.54 17.2083 16.917 18.8592 16.917 20.8958C16.917 22.9323 18.54 24.5833 20.542 24.5833Z" stroke="#0FA958" stroke-width="2" stroke-linecap="round" stroke-linejoin="round"/>
<path d="M50.7497 36.8749L38.6663 24.5833L12.083 51.6249" stroke="#0FA958" stroke-width="2" stroke-linecap="round" stroke-linejoin="round"/>
<path d="M50.5 54C50.5 53.0151 50.694 52.0398 51.0709 51.1299C51.4478 50.2199 52.0003 49.3931 52.6967 48.6967C53.3931 48.0003 54.2199 47.4478 55.1299 47.0709C56.0398 46.694 57.0151 46.5 58 46.5C58.9849 46.5 59.9602 46.694 60.8701 47.0709C61.7801 47.4478 62.6069 48.0003 63.3033 48.6967C63.9997 49.3931 64.5522 50.2199 64.9291 51.1299C65.306 52.0398 65.5 53.0151 65.5 54C65.5 55.9891 64.7098 57.8968 63.3033 59.3033C61.8968 60.7098 59.9891 61.5 58 61.5C56.0109 61.5 54.1032 60.7098 52.6967 59.3033C51.2902 57.8968 50.5 55.9891 50.5 54ZM58 50.25C57.8342 50.25 57.6753 50.3158 57.5581 50.4331C57.4408 50.5503 57.375 50.7092 57.375 50.875V53.375H54.875C54.7092 53.375 54.5503 53.4408 54.4331 53.5581C54.3158 53.6753 54.25 53.8342 54.25 54C54.25 54.1658 54.3158 54.3247 54.4331 54.4419C54.5503 54.5592 54.7092 54.625 54.875 54.625H57.375V57.125C57.375 57.2908 57.4408 57.4497 57.5581 57.5669C57.6753 57.6842 57.8342 57.75 58 57.75C58.1658 57.75 58.3247 57.6842 58.4419 57.5669C58.5592 57.4497 58.625 57.2908 58.625 57.125V54.625H61.125C61.2908 54.625 61.4497 54.5592 61.5669 54.4419C61.6842 54.3247 61.75 54.1658 61.75 54C61.75 53.8342 61.6842 53.6753 61.5669 53.5581C61.4497 53.4408 61.2908 53.375 61.125 53.375H58.625V50.875C58.625 50.7092 58.5592 50.5503 58.4419 50.4331C58.3247 50.3158 58.1658 50.25 58 50.25Z" fill="#0FA958"/>
</svg>
