<svg xmlns="http://www.w3.org/2000/svg" width="60" height="60" viewBox="0 0 60 60">
  <g id="Group_1" data-name="Group 1" transform="translate(-1481 -627)">
    <g id="dashboard-student" transform="translate(1482 627)">
      <rect id="Rectangle_1" data-name="Rectangle 1" width="60" height="60" rx="30" transform="translate(-1)" fill="#5b93ff" opacity="0.1"/>
    </g>
    <path id="account_circle_FILL0_wght400_GRAD0_opsz48" d="M9.5,28.207a22.307,22.307,0,0,1,4.841-2.614,14.412,14.412,0,0,1,5.151-.91,14.57,14.57,0,0,1,5.171.91,22.129,22.129,0,0,1,4.861,2.614,13.6,13.6,0,0,0,2.421-4.222,14,14,0,0,0,.717-4.493A12.9,12.9,0,0,0,19.492,6.324,12.9,12.9,0,0,0,6.324,19.492a13.662,13.662,0,0,0,.736,4.493A13.938,13.938,0,0,0,9.5,28.207Zm9.993-7.552a5.225,5.225,0,0,1-5.306-5.306,5.225,5.225,0,0,1,5.306-5.306A5.225,5.225,0,0,1,24.8,15.348a5.225,5.225,0,0,1-5.306,5.306Zm0,14.33a14.99,14.99,0,0,1-6-1.22A15.609,15.609,0,0,1,5.22,25.5a15.428,15.428,0,0,1,0-12.026,15.661,15.661,0,0,1,8.269-8.25,15.428,15.428,0,0,1,12.026,0,15.714,15.714,0,0,1,8.25,8.25,15.428,15.428,0,0,1,0,12.026,15.661,15.661,0,0,1-8.25,8.269A14.948,14.948,0,0,1,19.492,34.985Zm0-2.324a14.2,14.2,0,0,0,4.164-.62,12.373,12.373,0,0,0,4.009-2.169,16.857,16.857,0,0,0-4.028-2.13,12.037,12.037,0,0,0-8.288,0,16.857,16.857,0,0,0-4.028,2.13,12.373,12.373,0,0,0,4.009,2.169A14.2,14.2,0,0,0,19.492,32.661Zm0-14.33a2.853,2.853,0,0,0,2.982-2.982,2.983,2.983,0,1,0-5.965,0,2.853,2.853,0,0,0,2.982,2.982ZM19.492,15.348ZM19.492,29.833Z" transform="translate(1491.508 637.508)" fill="#5b93ff"/>
  </g>
</svg>
