<svg id="student" width="60" height="60" viewBox="0 0 60 60" fill="none" xmlns="http://www.w3.org/2000/svg">
    <rect opacity="0.1" width="60" height="60" rx="30" fill="#5B93FF" />
    <path
        d="M40.8723 22.4968L30.5038 19.0406C30.3279 18.9865 30.1398 18.9865 29.9638 19.0406L19.6061 22.4968H19.5845L19.4765 22.5508H19.4657L19.3577 22.6156C19.3577 22.6264 19.3469 22.6264 19.3361 22.6372L19.2497 22.7128L19.1741 22.7992C19.1741 22.81 19.1633 22.81 19.1633 22.8208L19.0985 22.918C19.0985 22.9288 19.0985 22.9288 19.0877 22.9396L19.0445 23.0368L19.0121 23.1556V23.188C19.0014 23.2303 18.9978 23.2741 19.0013 23.3176V31.958C19.0013 32.1872 19.0923 32.407 19.2544 32.569C19.4164 32.731 19.6362 32.8221 19.8653 32.8221C20.0945 32.8221 20.3143 32.731 20.4763 32.569C20.6383 32.407 20.7294 32.1872 20.7294 31.958V24.5165L24.3583 25.7261C23.6766 26.8174 23.3171 28.0792 23.3215 29.3659C23.3219 30.5361 23.6194 31.6871 24.1861 32.711C24.7528 33.7349 25.5702 34.5981 26.5617 35.2198C24.5013 35.9992 22.7424 37.4139 21.5394 39.2592C21.4168 39.4531 21.3752 39.6874 21.4237 39.9116C21.4722 40.1359 21.6068 40.3321 21.7986 40.458C21.8927 40.5204 21.9983 40.5635 22.1092 40.5847C22.22 40.606 22.334 40.605 22.4445 40.5819C22.555 40.5588 22.6599 40.514 22.7529 40.4501C22.846 40.3862 22.9254 40.3045 22.9867 40.2096C23.7709 39.0016 24.8447 38.0088 26.1104 37.3214C27.3761 36.6341 28.7935 36.2741 30.2338 36.2741C31.6741 36.2741 33.0915 36.6341 34.3572 37.3214C35.6229 38.0088 36.6967 39.0016 37.481 40.2096C37.5599 40.3294 37.6673 40.4277 37.7936 40.4955C37.92 40.5634 38.0612 40.5988 38.2046 40.5984C38.3701 40.6002 38.5322 40.5512 38.669 40.458C38.8608 40.3321 38.9954 40.1359 39.0439 39.9116C39.0924 39.6874 39.0509 39.4531 38.9282 39.2592C37.7252 37.4139 35.9663 35.9992 33.906 35.2198C34.8975 34.5981 35.7148 33.7349 36.2816 32.711C36.8483 31.6871 37.1458 30.5361 37.1462 29.3659C37.1505 28.0792 36.7911 26.8174 36.1093 25.7261L40.8723 24.1385C41.0452 24.0816 41.1957 23.9717 41.3024 23.8243C41.4091 23.6769 41.4666 23.4996 41.4666 23.3176C41.4666 23.1356 41.4091 22.9583 41.3024 22.8109C41.1957 22.6635 41.0452 22.5536 40.8723 22.4968V22.4968ZM30.2338 34.5502C28.8589 34.5502 27.5402 34.004 26.568 33.0317C25.5958 32.0595 25.0496 30.7409 25.0496 29.3659C25.0517 28.2596 25.4032 27.1823 26.054 26.2878L29.9638 27.5946C30.1392 27.6523 30.3285 27.6523 30.5038 27.5946L34.4136 26.2878C35.0644 27.1823 35.416 28.2596 35.4181 29.3659C35.4181 30.7409 34.8719 32.0595 33.8996 33.0317C32.9274 34.004 31.6088 34.5502 30.2338 34.5502Z"
        fill="#5B93FF" />
</svg>