<svg width="60" height="60" viewBox="0 0 60 60" fill="none" xmlns="http://www.w3.org/2000/svg">
<rect opacity="0.1" width="60" height="60" rx="30" fill="#605BFF"/>
<path d="M27.4 40.6H32.2M38.2 40.6V21.4C38.2 20.7635 37.9471 20.153 37.4971 19.7029C37.047 19.2529 36.4365 19 35.8 19H23.8C23.1635 19 22.553 19.2529 22.1029 19.7029C21.6529 20.153 21.4 20.7635 21.4 21.4V40.6H38.2ZM38.2 40.6H40.6H38.2ZM38.2 40.6H32.2H38.2ZM21.4 40.6H19H21.4ZM21.4 40.6H27.4H21.4ZM26.2 23.8H27.4H26.2ZM26.2 28.6H27.4H26.2ZM32.2 23.8H33.4H32.2ZM32.2 28.6H33.4H32.2ZM27.4 40.6V34.6C27.4 34.2817 27.5264 33.9765 27.7515 33.7515C27.9765 33.5264 28.2817 33.4 28.6 33.4H31C31.3183 33.4 31.6235 33.5264 31.8485 33.7515C32.0736 33.9765 32.2 34.2817 32.2 34.6V40.6H27.4Z" stroke="#605BFF" stroke-width="1.66667" stroke-linecap="round" stroke-linejoin="round"/>
</svg>
