<svg width="61" height="60" viewBox="0 0 61 60" fill="none" xmlns="http://www.w3.org/2000/svg">
<rect opacity="0.2" x="0.078125" width="60" height="60" rx="30" fill="#FFD66B"/>
<path d="M25.5739 34.0497C25.4731 34.0497 25.3722 34.0645 25.2761 34.0957C24.7293 34.2733 24.1543 34.3872 23.5489 34.3872C22.9435 34.3872 22.3685 34.2733 21.8213 34.0957C21.7251 34.0645 21.6247 34.0497 21.5239 34.0497C18.9057 34.0497 16.785 36.1793 16.7989 38.8009C16.8048 39.9087 17.7156 40.7997 18.8239 40.7997H28.2739C29.3822 40.7997 30.293 39.9087 30.2989 38.8009C30.3128 36.1793 28.1921 34.0497 25.5739 34.0497ZM23.5489 32.6997C25.7857 32.6997 27.5989 30.8865 27.5989 28.6497C27.5989 26.4129 25.7857 24.5997 23.5489 24.5997C21.3121 24.5997 19.4989 26.4129 19.4989 28.6497C19.4989 30.8865 21.3121 32.6997 23.5489 32.6997ZM41.7739 19.1997H25.5739C24.4572 19.1997 23.5489 20.1384 23.5489 21.2918V23.2497C24.5369 23.2497 25.4516 23.5357 26.2489 24.0006V21.8997H41.0989V34.0497H38.3989V31.3497H32.9989V34.0497H29.7825C30.5883 34.7538 31.1798 35.6836 31.4569 36.7497H41.7739C42.8906 36.7497 43.7989 35.811 43.7989 34.6576V21.2918C43.7989 20.1384 42.8906 19.1997 41.7739 19.1997Z" fill="#FFC327"/>
</svg>
