<svg width="60" height="60" viewBox="0 0 60 60" fill="none" xmlns="http://www.w3.org/2000/svg">
<rect opacity="0.1" width="60" height="60" rx="30" fill="#FF8F6B"/>
<path d="M14.4004 21.6858C14.4004 20.8674 14.7255 20.0826 15.3042 19.5039C15.8829 18.9252 16.6677 18.6001 17.4861 18.6001H42.1718C42.9902 18.6001 43.7751 18.9252 44.3537 19.5039C44.9324 20.0826 45.2575 20.8674 45.2575 21.6858V37.1144C45.2575 37.9328 44.9324 38.7176 44.3537 39.2963C43.7751 39.875 42.9902 40.2001 42.1718 40.2001H17.4861C16.6677 40.2001 15.8829 39.875 15.3042 39.2963C14.7255 38.7176 14.4004 37.9328 14.4004 37.1144V21.6858Z" stroke="#FF8F6B" stroke-width="3" stroke-linecap="round" stroke-linejoin="round"/>
<path d="M29.8297 34.0286C32.386 34.0286 34.4583 31.9563 34.4583 29.4001C34.4583 26.8438 32.386 24.7715 29.8297 24.7715C27.2735 24.7715 25.2012 26.8438 25.2012 29.4001C25.2012 31.9563 27.2735 34.0286 29.8297 34.0286Z" stroke="#FF8F6B" stroke-width="3" stroke-linecap="round" stroke-linejoin="round"/>
</svg>
