<svg xmlns="http://www.w3.org/2000/svg" width="150" height="150" viewBox="0 0 150 150">
  <g id="Group_3648" data-name="Group 3648" transform="translate(-1165 -1375)">
    <path id="Path_3251" data-name="Path 3251" d="M75,0A75,75,0,1,1,0,75,75,75,0,0,1,75,0Z" transform="translate(1165 1375)" fill="rgba(128,128,128,0.1)"/>
    <g id="school_13_" data-name="school (13)" transform="translate(1204.999 1415)">
      <path id="Path_3253" data-name="Path 3253" d="M313.815,154.828h15.433l-2.7-12.978a2.051,2.051,0,0,0-2.008-1.632H300.781Zm0,0" transform="translate(-259.657 -121.047)" fill="rgba(0,0,0,0.6)"/>
      <path id="Path_3254" data-name="Path 3254" d="M31.44,140.215H7.723a2.051,2.051,0,0,0-2.008,1.633l-2.7,12.978H18.3Zm0,0" transform="translate(-2.6 -121.044)" fill="rgba(0,0,0,0.6)"/>
      <path id="Path_3255" data-name="Path 3255" d="M243.051,224.941a2.051,2.051,0,1,0,2.051,2.051A2.053,2.053,0,0,0,243.051,224.941Zm0,0" transform="translate(-208.05 -194.187)" fill="rgba(0,0,0,0.6)"/>
      <path id="Path_3256" data-name="Path 3256" d="M240.434,428.992h4.1v11.346h-4.1Zm0,0" transform="translate(-207.561 -370.339)" fill="rgba(0,0,0,0.6)"/>
      <path id="Path_3257" data-name="Path 3257" d="M53.238,37.883a2.05,2.05,0,0,1-1.53-.686L37.052,20.768V10.254h9.324A1.367,1.367,0,0,0,47.55,8.185L45.723,5.128,47.55,2.07A1.367,1.367,0,0,0,46.377,0H35.026L35,0A2.051,2.051,0,0,0,32.95,2.051V20.734L18.134,37.2a2.051,2.051,0,0,1-1.525.679H0V67.949A2.051,2.051,0,0,0,2.051,70h26.72V56.6a2.051,2.051,0,0,1,2.051-2.051h8.2A2.051,2.051,0,0,1,41.076,56.6V70H67.952A2.051,2.051,0,0,0,70,67.949V37.883ZM12.5,59.337a2.051,2.051,0,1,1-4.1,0V56.6a2.051,2.051,0,1,1,4.1,0Zm0-10.937a2.051,2.051,0,0,1-4.1,0V45.665a2.051,2.051,0,1,1,4.1,0Zm8.2,10.937a2.051,2.051,0,1,1-4.1,0V56.6a2.051,2.051,0,1,1,4.1,0Zm0-10.937a2.051,2.051,0,0,1-4.1,0V45.665a2.051,2.051,0,1,1,4.1,0Zm12.144,0a2.051,2.051,0,0,1-4.1,0V45.665a2.051,2.051,0,1,1,4.1,0Zm-4-15.595A6.153,6.153,0,1,1,35,38.958,6.159,6.159,0,0,1,28.849,32.805ZM41.256,48.4a2.051,2.051,0,0,1-4.1,0V45.665a2.051,2.051,0,1,1,4.1,0ZM52.888,59.337a2.051,2.051,0,1,1-4.1,0V56.6a2.051,2.051,0,1,1,4.1,0Zm0-10.937a2.051,2.051,0,0,1-4.1,0V45.665a2.051,2.051,0,1,1,4.1,0Zm8.2,10.937a2.051,2.051,0,1,1-4.1,0V56.6a2.051,2.051,0,1,1,4.1,0Zm0-10.937a2.051,2.051,0,0,1-4.1,0V45.665a2.051,2.051,0,1,1,4.1,0Zm0,0" fill="rgba(0,0,0,0.6)"/>
    </g>
  </g>
</svg>
