<svg>
	<defs>
		<svg id="add_new" viewBox="0 0 25 25" fill="none" xmlns="http://www.w3.org/2000/svg">
			<path d="M4.375 5.625C4.24625 5.625 4.12125 5.635 3.9975 5.65375C4.23728 5.08899 4.638 4.6073 5.1497 4.26876C5.66141 3.93022 6.26144 3.7498 6.875 3.75H18.125C18.9538 3.75 19.7487 4.07924 20.3347 4.66529C20.9208 5.25134 21.25 6.0462 21.25 6.875V12C20.8505 11.7956 20.4318 11.631 20 11.5087V6.875C20 6.37772 19.8025 5.90081 19.4508 5.54917C19.0992 5.19754 18.6223 5 18.125 5H6.875C6.23375 5 5.6675 5.3225 5.32875 5.8125C5.02622 5.68802 4.70214 5.6243 4.375 5.625ZM11.5087 20C11.6325 20.4363 11.7963 20.8537 12 21.25H6.875C6.0462 21.25 5.25134 20.9208 4.66529 20.3347C4.07924 19.7487 3.75 18.9538 3.75 18.125V10.5463C4.15997 10.6519 4.59003 10.6519 5 10.5463V18.125C5 18.6223 5.19754 19.0992 5.54917 19.4508C5.90081 19.8025 6.37772 20 6.875 20H11.5087ZM12 15C12.2288 14.5525 12.505 14.1338 12.8212 13.75H9.375C9.20924 13.75 9.05027 13.8158 8.93306 13.9331C8.81585 14.0503 8.75 14.2092 8.75 14.375C8.75 14.5408 8.81585 14.6997 8.93306 14.8169C9.05027 14.9342 9.20924 15 9.375 15H12V15ZM4.375 6.875C4.04348 6.875 3.72554 7.0067 3.49112 7.24112C3.2567 7.47554 3.125 7.79348 3.125 8.125C3.125 8.45652 3.2567 8.77446 3.49112 9.00888C3.72554 9.2433 4.04348 9.375 4.375 9.375C4.70652 9.375 5.02446 9.2433 5.25888 9.00888C5.4933 8.77446 5.625 8.45652 5.625 8.125C5.625 7.79348 5.4933 7.47554 5.25888 7.24112C5.02446 7.0067 4.70652 6.875 4.375 6.875ZM9.375 10C9.20924 10 9.05027 10.0658 8.93306 10.1831C8.81585 10.3003 8.75 10.4592 8.75 10.625C8.75 10.7908 8.81585 10.9497 8.93306 11.0669C9.05027 11.1842 9.20924 11.25 9.375 11.25H15.625C15.7908 11.25 15.9497 11.1842 16.0669 11.0669C16.1842 10.9497 16.25 10.7908 16.25 10.625C16.25 10.4592 16.1842 10.3003 16.0669 10.1831C15.9497 10.0658 15.7908 10 15.625 10H9.375ZM23.75 18.125C23.75 19.6168 23.1574 21.0476 22.1025 22.1025C21.0476 23.1574 19.6168 23.75 18.125 23.75C16.6332 23.75 15.2024 23.1574 14.1475 22.1025C13.0926 21.0476 12.5 19.6168 12.5 18.125C12.5 16.6332 13.0926 15.2024 14.1475 14.1475C15.2024 13.0926 16.6332 12.5 18.125 12.5C19.6168 12.5 21.0476 13.0926 22.1025 14.1475C23.1574 15.2024 23.75 16.6332 23.75 18.125V18.125ZM18.75 15.625C18.75 15.4592 18.6842 15.3003 18.5669 15.1831C18.4497 15.0658 18.2908 15 18.125 15C17.9592 15 17.8003 15.0658 17.6831 15.1831C17.5658 15.3003 17.5 15.4592 17.5 15.625V17.5H15.625C15.4592 17.5 15.3003 17.5658 15.1831 17.6831C15.0658 17.8003 15 17.9592 15 18.125C15 18.2908 15.0658 18.4497 15.1831 18.5669C15.3003 18.6842 15.4592 18.75 15.625 18.75H17.5V20.625C17.5 20.7908 17.5658 20.9497 17.6831 21.0669C17.8003 21.1842 17.9592 21.25 18.125 21.25C18.2908 21.25 18.4497 21.1842 18.5669 21.0669C18.6842 20.9497 18.75 20.7908 18.75 20.625V18.75H20.625C20.7908 18.75 20.9497 18.6842 21.0669 18.5669C21.1842 18.4497 21.25 18.2908 21.25 18.125C21.25 17.9592 21.1842 17.8003 21.0669 17.6831C20.9497 17.5658 20.7908 17.5 20.625 17.5H18.75V15.625Z" fill="white" />
		</svg>
	</defs>
	<defs>
		<svg id="visibility" viewBox="0 0 21 20" fill="none" xmlns="http://www.w3.org/2000/svg">
			<path d="M17.4219 13.0312C18.6752 11.6562 19.4272 10.25 19.4272 9.4375C19.4272 7.59375 15.2285 2.1875 10.0271 2.1875C4.82568 2.1875 0.626953 7.59375 0.626953 9.4375C0.626953 11.2812 4.82568 16.6875 10.0271 16.6875C11.4684 16.6875 12.8471 16.2812 14.0691 15.625C14.0691 15.625 14.0378 16.0625 17.5472 13.0312C21.0566 10 17.4219 13.0312 17.4219 13.0312Z" fill="#63677D" />
			<path d="M10.0282 14.125C12.624 14.125 14.7283 12.0263 14.7283 9.4375C14.7283 6.84867 12.624 4.75 10.0282 4.75C7.43242 4.75 5.32812 6.84867 5.32812 9.4375C5.32812 12.0263 7.43242 14.125 10.0282 14.125Z" fill="white" />
			<path d="M10.0271 6.625C9.71373 6.625 9.43173 6.6875 9.14973 6.75C9.4944 7.03125 9.71373 7.46875 9.71373 7.9375C9.71373 8.8125 9.02439 9.5 8.14704 9.5C7.80237 9.5 7.48904 9.375 7.20703 9.1875V9.40625C7.20703 10.9687 8.46038 12.2187 10.0271 12.2187C11.5938 12.2187 12.8471 10.9687 12.8471 9.40625C12.8471 7.84375 11.5938 6.625 10.0271 6.625" fill="#63677D" />
		</svg>
	</defs>
	<defs>
		<svg id="classes" viewBox="0 0 22 22" fill="none" xmlns="http://www.w3.org/2000/svg">
			<path fill-rule="evenodd" clip-rule="evenodd" d="M9.16678 1.83331H12.8335V3.66665H9.16678V1.83331ZM21.0833 1.83331H14.6667V0.916735C14.6667 0.410652 14.2568 0 13.75 0H8.25004C7.74314 0 7.33331 0.410652 7.33331 0.916735V1.83331H0.916735C0.40967 1.83331 0 2.24396 0 2.74988V12.8331H1.45384L7.60196 6.68494C7.96035 6.32655 8.53965 6.32655 8.89804 6.68494L11.9165 9.70359L14.0184 7.60171C14.377 7.24317 14.9563 7.24317 15.3147 7.60171L20.5461 12.8332H22V2.75C22 2.24408 21.5902 1.83343 21.0832 1.83343L21.0833 1.83331Z" fill="#63677D" />
			<path fill-rule="evenodd" clip-rule="evenodd" d="M0.000245397 17.4164C0.000245397 17.9223 0.409957 18.333 0.91698 18.333H8.7871L6.68522 20.4349C6.32684 20.7933 6.32684 21.3727 6.68522 21.7311C6.86394 21.9098 7.09862 21.9997 7.33326 21.9997C7.56793 21.9997 7.8026 21.9098 7.98147 21.7311L11 18.7125L14.0184 21.7311C14.1973 21.9098 14.432 21.9997 14.6667 21.9997C14.9013 21.9997 15.136 21.9098 15.3147 21.7311C15.6731 21.3727 15.6731 20.7933 15.3147 20.4349L13.2128 18.333H21.0829C21.59 18.333 21.9997 17.9223 21.9997 17.4164V14.6665H0L0.000245397 17.4164Z" fill="#63677D" />
			<path fill-rule="evenodd" clip-rule="evenodd" d="M12.5646 11.648C12.206 12.0064 11.6267 12.0064 11.2683 11.648L8.24982 8.62939L4.0459 12.8333H17.9532L14.6662 9.54629L12.5646 11.648Z" fill="#63677D" />
		</svg>
	</defs>
	<defs>
		<svg id="schedule" viewBox="0 0 22 22" fill="none" xmlns="http://www.w3.org/2000/svg">
			<path d="M17.4163 3.66683H16.4997V2.75016C16.4997 2.20016 16.133 1.8335 15.583 1.8335C15.033 1.8335 14.6663 2.20016 14.6663 2.75016V3.66683H7.33301V2.75016C7.33301 2.20016 6.96634 1.8335 6.41634 1.8335C5.86634 1.8335 5.49967 2.20016 5.49967 2.75016V3.66683H4.58301C3.02467 3.66683 1.83301 4.8585 1.83301 6.41683V7.3335H20.1663V6.41683C20.1663 4.8585 18.9747 3.66683 17.4163 3.66683ZM1.83301 17.4168C1.83301 18.9752 3.02467 20.1668 4.58301 20.1668H17.4163C18.9747 20.1668 20.1663 18.9752 20.1663 17.4168V9.16683H1.83301V17.4168ZM15.583 11.0002C16.133 11.0002 16.4997 11.3668 16.4997 11.9168C16.4997 12.4668 16.133 12.8335 15.583 12.8335C15.033 12.8335 14.6663 12.4668 14.6663 11.9168C14.6663 11.3668 15.033 11.0002 15.583 11.0002ZM15.583 14.6668C16.133 14.6668 16.4997 15.0335 16.4997 15.5835C16.4997 16.1335 16.133 16.5002 15.583 16.5002C15.033 16.5002 14.6663 16.1335 14.6663 15.5835C14.6663 15.0335 15.033 14.6668 15.583 14.6668ZM10.9997 11.0002C11.5497 11.0002 11.9163 11.3668 11.9163 11.9168C11.9163 12.4668 11.5497 12.8335 10.9997 12.8335C10.4497 12.8335 10.083 12.4668 10.083 11.9168C10.083 11.3668 10.4497 11.0002 10.9997 11.0002ZM10.9997 14.6668C11.5497 14.6668 11.9163 15.0335 11.9163 15.5835C11.9163 16.1335 11.5497 16.5002 10.9997 16.5002C10.4497 16.5002 10.083 16.1335 10.083 15.5835C10.083 15.0335 10.4497 14.6668 10.9997 14.6668ZM6.41634 11.0002C6.96634 11.0002 7.33301 11.3668 7.33301 11.9168C7.33301 12.4668 6.96634 12.8335 6.41634 12.8335C5.86634 12.8335 5.49967 12.4668 5.49967 11.9168C5.49967 11.3668 5.86634 11.0002 6.41634 11.0002ZM6.41634 14.6668C6.96634 14.6668 7.33301 15.0335 7.33301 15.5835C7.33301 16.1335 6.96634 16.5002 6.41634 16.5002C5.86634 16.5002 5.49967 16.1335 5.49967 15.5835C5.49967 15.0335 5.86634 14.6668 6.41634 14.6668Z" fill="#63677D" />
		</svg>
	</defs>
	<defs>
		<svg id="attendance" viewBox="0 0 18 18" fill="none" xmlns="http://www.w3.org/2000/svg">
			<path d="M14.6659 0.666508C15.5902 0.666508 16.331 1.41061 16.331 2.33492C16.331 3.25924 15.5902 4.00006 14.6659 4.00006C13.7416 4.00006 13 3.25924 13 2.33492C13 2.27719 13.0028 2.21991 13.0085 2.16366C13.0933 1.3203 13.7993 0.666504 14.6659 0.666504L14.6659 0.666508Z" fill="#63677D" />
			<path d="M8.99945 3.92323e-06C10.2919 3.92323e-06 11.3319 1.04259 11.3319 2.33501C11.3319 3.62743 10.292 4.66746 8.99945 4.66746C7.70702 4.66746 6.66699 3.62755 6.66699 2.33501C6.66699 2.25422 6.67146 2.17402 6.67934 2.09545C6.79838 0.91597 7.78786 0 8.99945 0L8.99945 3.92323e-06Z" fill="#63677D" />
			<path d="M3.33383 0.666508C4.25815 0.666508 4.9997 1.41061 4.9997 2.33492C4.9997 3.25924 4.25811 4.00006 3.33383 4.00006C2.40956 4.00006 1.66797 3.25924 1.66797 2.33492C1.66797 2.27719 1.6708 2.21991 1.67645 2.16366C1.76126 1.3203 2.46729 0.666504 3.33386 0.666504L3.33383 0.666508Z" fill="#63677D" />
			<path d="M8.99956 11.332C8.88842 11.332 8.77905 11.3383 8.67088 11.3489C8.62684 11.3532 8.58414 11.3612 8.54069 11.3672C8.47686 11.3759 8.41302 11.3841 8.35053 11.3965C8.29458 11.4075 8.24013 11.4224 8.18522 11.4362C8.13865 11.4478 8.09164 11.4584 8.04596 11.4719C7.9848 11.4902 7.92528 11.5122 7.86562 11.5338C7.82649 11.5479 7.78691 11.5606 7.74837 11.5761C7.69362 11.5982 7.64035 11.6234 7.58693 11.6484C7.54452 11.6683 7.50152 11.6874 7.46001 11.7089C7.40838 11.7359 7.35839 11.7653 7.30839 11.7948C7.26986 11.8176 7.23132 11.8403 7.19382 11.8644C7.14294 11.8973 7.09354 11.9318 7.04473 11.9674C7.01096 11.9918 6.97718 12.0165 6.94445 12.0422C6.8949 12.0811 6.84654 12.1217 6.79937 12.1632C6.76991 12.1891 6.7412 12.2153 6.71278 12.2421C6.6665 12.2856 6.62157 12.3306 6.57797 12.3767C6.55044 12.4059 6.52366 12.4359 6.49732 12.466C6.45492 12.514 6.4137 12.5632 6.37427 12.6137C6.35255 12.6414 6.33187 12.67 6.31103 12.6984C6.26952 12.7551 6.2286 12.8127 6.19066 12.8722C6.17429 12.8978 6.15882 12.9241 6.14319 12.9503C6.106 13.0121 6.07014 13.0747 6.03695 13.1391C6.02163 13.1689 6.00794 13.1998 5.99336 13.2302C5.9636 13.2928 5.93414 13.3556 5.9081 13.4203C5.89471 13.4538 5.8834 13.4885 5.87105 13.5224C5.84695 13.5886 5.82329 13.6548 5.80335 13.723C5.79547 13.7496 5.78966 13.7769 5.78252 13.8036C5.76169 13.882 5.74175 13.9608 5.72657 14.0413C5.72449 14.0518 5.72315 14.0627 5.72137 14.0732C5.70411 14.1686 5.68982 14.2653 5.68089 14.3635C5.67197 14.4632 5.66602 14.5641 5.66602 14.6662C5.66602 16.5109 7.15483 17.9999 8.99957 17.9999C10.8443 17.9999 12.3339 16.5109 12.3339 14.6662C12.3339 14.5619 12.3275 14.4589 12.3182 14.357C12.3097 14.2658 12.2961 14.1758 12.2804 14.0869C12.2778 14.0713 12.2763 14.0554 12.2733 14.0401C12.2563 13.9506 12.2346 13.8629 12.2108 13.7764C12.2066 13.7612 12.2034 13.7458 12.199 13.7307C12.1761 13.6517 12.1488 13.5748 12.1203 13.4985C12.1116 13.4749 12.1035 13.4513 12.0943 13.4281C12.066 13.3573 12.034 13.2887 12.0012 13.2204C11.9884 13.1937 11.9763 13.1666 11.9628 13.1403C11.9314 13.0795 11.8974 13.0207 11.8625 12.9621C11.8431 12.9293 11.8244 12.8963 11.8039 12.8643C11.769 12.8101 11.7317 12.7575 11.6939 12.7055C11.6713 12.6744 11.6487 12.6433 11.6249 12.6131C11.5838 12.5605 11.5409 12.5088 11.4967 12.4588C11.4738 12.4331 11.4506 12.4077 11.427 12.3827C11.3819 12.3346 11.3356 12.2879 11.2877 12.2426C11.2579 12.2145 11.2274 12.187 11.1966 12.1601C11.1504 12.1194 11.103 12.08 11.0547 12.0422C11.0236 12.0178 10.9916 11.9945 10.9596 11.9712C10.9075 11.9333 10.855 11.8961 10.8008 11.8611C10.7677 11.84 10.7337 11.8201 10.6998 11.8C10.6457 11.7678 10.5912 11.736 10.5353 11.707C10.497 11.6872 10.4577 11.6693 10.4186 11.6509C10.3634 11.6249 10.3084 11.5991 10.2514 11.5761C10.2113 11.5598 10.1698 11.5464 10.1291 11.5319C10.0716 11.5112 10.0145 11.49 9.95586 11.4726C9.9078 11.4582 9.8584 11.447 9.80945 11.4348C9.75618 11.4216 9.70336 11.4072 9.6492 11.3965C9.58671 11.3841 9.52288 11.3759 9.45919 11.3671C9.41574 11.3612 9.37289 11.3532 9.329 11.3488C9.22067 11.3383 9.11072 11.332 8.99957 11.332L8.99956 11.332ZM10.5397 13.1137C10.6327 13.1102 10.7229 13.146 10.7885 13.212C10.9177 13.3419 10.9177 13.552 10.7885 13.6819L8.90122 15.569C8.85034 15.6195 8.78472 15.6521 8.71374 15.6622C8.70452 15.6637 8.69514 15.6647 8.68577 15.6655C8.59114 15.671 8.49859 15.636 8.43133 15.569L7.25303 14.3902C7.19039 14.3277 7.15513 14.2429 7.15513 14.1542C7.15513 14.0657 7.19039 13.9808 7.25303 13.9182C7.3124 13.8581 7.39245 13.8227 7.47696 13.8193C7.56907 13.8169 7.65819 13.8527 7.72306 13.9182L8.66627 14.8616L10.3158 13.212C10.3753 13.1521 10.4554 13.117 10.5397 13.1137L10.5397 13.1137Z" fill="#63677D" />
			<path d="M8.99911 6.58398C9.80275 6.58398 10.6043 6.72072 11.271 6.97723C11.3783 7.01875 11.4825 7.06309 11.5822 7.1107C11.6112 7.12454 11.6386 7.13942 11.6668 7.1537C11.7524 7.197 11.8348 7.24253 11.9135 7.29044C11.9408 7.30696 11.9678 7.32362 11.9942 7.34058C12.0864 7.4004 12.1744 7.46215 12.2552 7.52806C12.2596 7.53163 12.2645 7.53491 12.2688 7.53848C12.3615 7.61496 12.4469 7.69575 12.5227 7.77997C12.5983 7.86403 12.6652 7.95123 12.7238 8.04229C12.7261 8.04586 12.728 8.04973 12.7304 8.0533C12.7805 8.13245 12.822 8.21533 12.8587 8.30074C12.8682 8.32335 12.8774 8.34612 12.886 8.36903C12.9137 8.44239 12.935 8.51902 12.9524 8.59758C12.9582 8.62421 12.9659 8.64981 12.9707 8.67703C12.9887 8.78029 13 8.88683 13 8.99991V13.9993H12.9167C12.6371 12.3461 11.3547 11.0321 9.71142 10.7327C9.69937 10.7305 9.68702 10.7296 9.67496 10.7275C9.57527 10.7103 9.47513 10.6942 9.37291 10.6845C9.25016 10.6725 9.12547 10.6656 8.9993 10.6656C8.87238 10.6656 8.74769 10.6723 8.62434 10.6845C8.52212 10.6941 8.42213 10.7103 8.32229 10.7275C8.31024 10.7298 8.29789 10.7311 8.28583 10.7333C6.63692 11.0324 5.33932 12.344 5.05958 13.9993H4.99902V8.9999C4.99902 8.88697 5.00974 8.78028 5.02774 8.67702C5.0325 8.6489 5.04054 8.62241 5.04664 8.59504C5.06419 8.51707 5.08547 8.44074 5.113 8.36783C5.12088 8.34655 5.12966 8.32557 5.13844 8.30475C5.17653 8.21532 5.21953 8.12843 5.2725 8.0457C5.33157 7.95345 5.39972 7.86521 5.4762 7.7801C5.55194 7.69589 5.6369 7.61509 5.72944 7.53861C5.73376 7.53504 5.73867 7.53177 5.74313 7.5282C5.82259 7.46333 5.90904 7.40232 5.99965 7.3434C6.02986 7.3239 6.06081 7.30501 6.09205 7.28611C6.16124 7.24415 6.23371 7.20472 6.3081 7.16634C6.34857 7.1455 6.38845 7.12363 6.43055 7.10384C6.50718 7.06754 6.58812 7.03436 6.66951 7.00162C7.34757 6.72993 8.17143 6.58411 8.99915 6.58411L8.99911 6.58398Z" fill="#63677D" />
			<path d="M14.6661 5.74951C15.5373 5.74951 16.4061 5.93386 17.0252 6.27162C17.6443 6.60923 17.9998 7.05248 17.9998 7.66655V12.666H13.6643V8.99973C13.6643 8.88084 13.6536 8.76597 13.6377 8.65274C13.6349 8.63221 13.632 8.61182 13.6286 8.59159C13.6097 8.4785 13.5841 8.36825 13.5505 8.26156C13.5503 8.26112 13.5506 8.26067 13.5505 8.26022C13.5502 8.25933 13.5502 8.25844 13.5499 8.25769C13.4402 7.91146 13.2565 7.60032 13.0174 7.3346C12.9949 7.30975 12.9666 7.29026 12.9425 7.2669C12.7133 7.0269 12.4435 6.818 12.1419 6.64777C12.0987 6.62337 12.0522 6.60254 12.0078 6.57948C12.6156 6.08609 13.5907 5.74952 14.6663 5.74952L14.6661 5.74951Z" fill="#63677D" />
			<path d="M3.33351 5.74951C4.40957 5.74951 5.38401 6.08593 5.99198 6.57948C5.94764 6.60254 5.90107 6.62352 5.85792 6.64777C5.55423 6.81903 5.28149 7.02929 5.05074 7.27136C5.02857 7.29308 5.00253 7.31138 4.9817 7.33444C4.74571 7.59661 4.56403 7.90314 4.45319 8.24386C4.45051 8.25219 4.44738 8.26023 4.44471 8.26856C4.41197 8.37301 4.38712 8.48089 4.36852 8.59144C4.3651 8.61212 4.36242 8.63311 4.35945 8.65393C4.34353 8.76687 4.33207 8.88129 4.33207 8.99973V12.666H0V7.66655C0 7.05248 0.352786 6.60922 0.971926 6.27147C1.5909 5.93386 2.46238 5.74951 3.33356 5.74951L3.33351 5.74951Z" fill="#63677D" />
		</svg>
	</defs>
	<defs>
		<svg id="print" viewBox="0 0 20 20" fill="none" xmlns="http://www.w3.org/2000/svg">
			<path d="M5.003 4.11762V4.99976H4.28585C3.52809 4.99976 2.80137 5.30078 2.26555 5.8366C1.72973 6.37242 1.42871 7.09914 1.42871 7.8569V12.8569C1.42871 13.4252 1.65448 13.9703 2.05634 14.3721C2.4582 14.774 3.00325 14.9998 3.57157 14.9998H5.00014V15.714C5.00014 16.2824 5.2259 16.8274 5.62777 17.2293C6.02963 17.6311 6.57468 17.8569 7.143 17.8569H12.8573C13.4256 17.8569 13.9706 17.6311 14.3725 17.2293C14.7744 16.8274 15.0001 16.2824 15.0001 15.714V14.9998H16.4287C16.997 14.9998 17.5421 14.774 17.9439 14.3721C18.3458 13.9703 18.5716 13.4252 18.5716 12.8569V7.8569C18.5716 7.09914 18.2705 6.37242 17.7347 5.8366C17.1989 5.30078 16.4722 4.99976 15.7144 4.99976H15.0001V4.10833C15.0001 3.85014 14.9492 3.59447 14.8503 3.35597C14.7515 3.11747 14.6065 2.9008 14.4238 2.71836C14.2411 2.53592 14.0242 2.39129 13.7856 2.29275C13.5469 2.1942 13.2912 2.14367 13.033 2.14405L6.96443 2.15333C6.44396 2.15409 5.94507 2.36137 5.57731 2.72967C5.20955 3.09796 5.003 3.59715 5.003 4.11762ZM13.9287 4.10833V4.99976H6.07442V4.11762C6.07442 3.62476 6.473 3.22547 6.96585 3.22476L13.0344 3.21547C13.1518 3.21529 13.2681 3.23824 13.3765 3.28303C13.485 3.32781 13.5836 3.39355 13.6667 3.47648C13.7498 3.55941 13.8156 3.6579 13.8606 3.76632C13.9056 3.87474 13.9287 3.99096 13.9287 4.10833ZM7.143 11.0712H12.8573C13.1414 11.0712 13.414 11.1841 13.6149 11.385C13.8158 11.5859 13.9287 11.8585 13.9287 12.1426V15.714C13.9287 15.9982 13.8158 16.2707 13.6149 16.4717C13.414 16.6726 13.1414 16.7855 12.8573 16.7855H7.143C6.85884 16.7855 6.58631 16.6726 6.38538 16.4717C6.18445 16.2707 6.07157 15.9982 6.07157 15.714V12.1426C6.07157 11.8585 6.18445 11.5859 6.38538 11.385C6.58631 11.1841 6.85884 11.0712 7.143 11.0712Z" fill="#fff" />
		</svg>
	</defs>
	<defs>
		<svg id="delete" viewBox="0 0 20 20" fill="none" xmlns="http://www.w3.org/2000/svg">
			<path d="M16.975 7.42513L16.1417 8.8668L6.03333 3.03346L6.86667 1.5918L9.4 3.05013L10.5333 2.7418L14.1417 4.82513L14.45 5.9668L16.975 7.42513ZM5 15.8335V5.83346H9.225L15 9.1668V15.8335C15 16.2755 14.8244 16.6994 14.5118 17.012C14.1993 17.3245 13.7754 17.5001 13.3333 17.5001H6.66667C6.22464 17.5001 5.80072 17.3245 5.48816 17.012C5.17559 16.6994 5 16.2755 5 15.8335Z" fill="#fff" />
		</svg>
	</defs>
	<defs>
		<svg id="edit" viewBox="0 0 20 20" fill="none" xmlns="http://www.w3.org/2000/svg">
			<path d="M16.1669 6.11655L13.8836 3.83321C13.5856 3.55329 13.1951 3.39268 12.7864 3.38192C12.3776 3.37117 11.9792 3.51102 11.6669 3.77488L4.16691 11.2749C3.89755 11.5465 3.72983 11.9026 3.69191 12.2832L3.33358 15.7582C3.32235 15.8803 3.33819 16.0033 3.37996 16.1185C3.42174 16.2338 3.48842 16.3384 3.57525 16.4249C3.65311 16.5021 3.74546 16.5632 3.84699 16.6047C3.94852 16.6462 4.05724 16.6672 4.16691 16.6665H4.24191L7.71691 16.3499C8.09758 16.312 8.45361 16.1442 8.72525 15.8749L16.2252 8.37488C16.5163 8.06735 16.6737 7.65697 16.6627 7.23366C16.6518 6.81035 16.4735 6.40864 16.1669 6.11655ZM13.3336 8.89988L11.1002 6.66655L12.7252 4.99988L15.0002 7.27488L13.3336 8.89988Z" fill="#fff" />
		</svg>
	</defs>
	<defs>
		<svg id="filter" viewBox="0 0 17 17" fill="none" xmlns="http://www.w3.org/2000/svg">
			<path d="M1.48741 1.5H14.7234C14.9428 1.5 15.1532 1.5878 15.3084 1.74408C15.4635 1.90036 15.5507 2.11232 15.5507 2.33333V3.655C15.5506 3.876 15.4634 4.08792 15.3083 4.24417L10.0015 9.58917C9.84662 9.74555 9.75974 9.95746 9.75991 10.1783V15.4325C9.75991 15.5592 9.73124 15.6842 9.67608 15.798C9.62092 15.9118 9.54073 16.0115 9.4416 16.0894C9.34246 16.1674 9.227 16.2215 9.10398 16.2477C8.98096 16.274 8.85362 16.2716 8.73164 16.2408L7.07714 15.8242C6.89825 15.779 6.73946 15.675 6.626 15.5285C6.51254 15.3821 6.45092 15.2016 6.45091 15.0158V10.1783C6.45086 9.95734 6.36368 9.74541 6.20853 9.58917L0.901714 4.24417C0.746867 4.08779 0.659984 3.87588 0.660157 3.655V2.33333C0.660157 2.11232 0.747313 1.90036 0.902453 1.74408C1.05759 1.5878 1.26801 1.5 1.48741 1.5V1.5Z" stroke="black" stroke-width="1.25" stroke-linecap="round" stroke-linejoin="round" />
		</svg>
	</defs>
	<defs>
		<svg id="search" viewBox="0 0 21 21" fill="none" xmlns="http://www.w3.org/2000/svg">
			<path d="M9.11214 15.617C10.5805 15.6167 12.0065 15.111 13.1632 14.1804L16.7998 17.9217L17.9695 16.7183L14.3329 12.977C15.2379 11.7869 15.7298 10.3195 15.7301 8.80851C15.7301 5.05447 12.7611 2 9.11214 2C5.46314 2 2.49414 5.05447 2.49414 8.80851C2.49414 12.5626 5.46314 15.617 9.11214 15.617ZM9.11214 3.70213C11.8495 3.70213 14.0756 5.99234 14.0756 8.80851C14.0756 11.6247 11.8495 13.9149 9.11214 13.9149C6.37477 13.9149 4.14864 11.6247 4.14864 8.80851C4.14864 5.99234 6.37477 3.70213 9.11214 3.70213Z" fill="#8F8F8F" />
			<path d="M10.2803 7.60503C10.5938 7.92844 10.7667 8.35567 10.7667 8.80844H12.4212C12.422 8.36114 12.3365 7.91813 12.1698 7.50502C12.0031 7.09191 11.7585 6.71688 11.45 6.40163C10.1976 5.11482 8.02604 5.11482 6.77441 6.40163L7.94249 7.60674C8.5712 6.96163 9.6549 6.96333 10.2803 7.60503Z" fill="#8F8F8F" />
		</svg>
	</defs>
	<defs>
		<svg id="change" viewBox="0 0 18 18" fill="none" xmlns="http://www.w3.org/2000/svg">
			<path d="M14.5597 2.55068C14.3149 1.57102 13.633 0.751806 12.7039 0.320864C11.7747 -0.110078 10.6972 -0.106756 9.77072 0.32977C8.84414 0.766151 8.16761 1.58947 7.92871 2.57066C7.86689 2.62397 7.83099 2.70069 7.83008 2.78161V3.85885C7.83008 3.93442 7.86067 4.00695 7.9151 4.06038C7.96954 4.11382 8.04341 4.14384 8.1204 4.14384H8.68071C8.98049 4.14384 9.25747 3.98684 9.40728 3.73199C9.55723 3.47715 9.55723 3.16314 9.40728 2.90831C9.25745 2.65347 8.98049 2.49658 8.68071 2.49658H8.55006C8.7971 1.74811 9.35543 1.13728 10.0868 0.815515C10.8182 0.49388 11.6542 0.491209 12.3878 0.808263C13.1212 1.12532 13.6836 1.73258 13.9355 2.47943H13.8311C13.5455 2.49597 13.2886 2.65513 13.1505 2.90106C13.0124 3.14686 13.0124 3.44508 13.1505 3.69089C13.2886 3.9367 13.5455 4.09588 13.8311 4.11239H14.3768C14.4538 4.11239 14.5277 4.08236 14.5821 4.02893C14.6366 3.97549 14.6672 3.90297 14.6672 3.8274V2.76439C14.6648 2.68118 14.6256 2.60306 14.5597 2.55065L14.5597 2.55068Z" fill="#63677D" />
			<path d="M15.8268 8.05409C15.5713 7.48323 15.1524 6.99747 14.621 6.65596C14.0896 6.31449 13.4687 6.13177 12.8335 6.13037H12.575H12.5752C12.4148 6.13037 12.2848 6.25786 12.2848 6.41536C12.2848 6.78038 12.0864 7.11765 11.7645 7.30011C11.4424 7.48269 11.0457 7.48269 10.7236 7.30011C10.4016 7.11767 10.2032 6.78038 10.2032 6.41536C10.2032 6.33979 10.1726 6.26727 10.1182 6.21383C10.0637 6.1604 9.98985 6.13037 9.91286 6.13037H9.65442C9.02182 6.13457 8.40395 6.31841 7.87529 6.65977C7.34674 7.00111 6.9302 7.48537 6.67578 8.05409H15.8268Z" fill="#63677D" />
			<path d="M17.7097 17.6755H0.290323C0.129998 17.6755 0 17.5478 0 17.3905C0 17.2331 0.129998 17.1055 0.290323 17.1055H17.7097C17.87 17.1055 18 17.2331 18 17.3905C18 17.5478 17.87 17.6755 17.7097 17.6755Z" fill="#63677D" />
			<path d="M2.83016 15.0903V16.0108C2.83016 16.1684 2.70016 16.2958 2.53984 16.2958C2.37951 16.2958 2.24951 16.1684 2.24951 16.0108V15.0903C1.90229 15.1565 1.5894 15.3391 1.36428 15.6069C1.13915 15.8746 1.01589 16.2108 1.01562 16.558V16.6778C1.01562 16.7533 1.04621 16.8258 1.10065 16.8793C1.15508 16.9327 1.22896 16.9627 1.30595 16.9627H3.77369C3.85068 16.9627 3.92455 16.9327 3.97899 16.8793C4.03342 16.8258 4.06401 16.7533 4.06401 16.6778V16.558C4.06375 16.2108 3.94049 15.8746 3.71536 15.6069C3.49023 15.3391 3.17735 15.1565 2.83012 15.0903H2.83016Z" fill="#63677D" />
			<path d="M10.7822 12.5796L10.7038 13.0298L11.1131 12.8303C11.1976 12.7867 11.2986 12.7867 11.3831 12.8303L11.7924 13.0413L11.714 12.591L11.7141 12.5909C11.6987 12.4989 11.7301 12.4051 11.7984 12.3401L12.1294 12.0209L11.6707 11.9554H11.6706C11.5761 11.9415 11.4947 11.8829 11.4529 11.7986L11.2496 11.3911L11.0319 11.7873C10.99 11.8715 10.9086 11.9301 10.8141 11.944L10.3555 12.0096L10.6865 12.3288H10.6864C10.7588 12.3915 10.7948 12.4855 10.7823 12.5796L10.7822 12.5796Z" fill="#63677D" />
			<path d="M17.8059 9.44798C17.8146 9.1934 17.7171 8.94646 17.5359 8.764C17.3588 8.5818 17.1133 8.47875 16.8565 8.479H5.64144C5.38482 8.47875 5.13933 8.5818 4.96215 8.764C4.77617 8.95357 4.67922 9.21096 4.69503 9.47368L5.47021 15.5497V16.1767C5.47617 16.3849 5.5643 16.5826 5.71594 16.7283C5.86759 16.8739 6.07093 16.9561 6.28312 16.9575H16.2032C16.4154 16.9561 16.6187 16.8739 16.7704 16.7283C16.922 16.5826 17.0101 16.3849 17.0161 16.1767V15.5497L17.7913 9.47368C17.7913 9.47368 17.8058 9.4565 17.8058 9.44798L17.8059 9.44798ZM9.46785 11.7279C9.5022 11.6246 9.59344 11.5494 9.70309 11.5342L10.5914 11.4059L10.9892 10.6137C11.0383 10.517 11.1389 10.4558 11.249 10.4558C11.3591 10.4558 11.4598 10.517 11.5089 10.6137L11.9037 11.4059L12.792 11.5342C12.9018 11.5498 12.9928 11.6254 13.0267 11.7289C13.0607 11.8325 13.0315 11.946 12.9517 12.0214L12.313 12.6314L12.464 13.5034C12.482 13.6102 12.437 13.7175 12.3478 13.781C12.2587 13.8444 12.1406 13.8528 12.043 13.8026L11.2504 13.4009L10.452 13.8026C10.3545 13.8528 10.2364 13.8444 10.1472 13.781C10.058 13.7175 10.0131 13.6102 10.0311 13.5034L10.1821 12.6314L9.54051 12.0159H9.54038C9.46106 11.9397 9.43294 11.8257 9.4678 11.7222L9.46785 11.7279ZM16.4356 16.1767V16.1769C16.4311 16.2999 16.3288 16.3977 16.2033 16.3991H6.29753C6.17207 16.3977 6.06981 16.2999 6.06527 16.1769V15.8406L16.4442 15.8405L16.4356 16.1767Z" fill="#63677D" />
			<path d="M12.7147 3.30283C12.7144 3.06541 12.7923 2.83423 12.9367 2.64379C13.0811 2.4532 13.2842 2.31362 13.5159 2.24545C13.233 1.68934 12.7482 1.25739 12.1571 1.03448C11.5658 0.811699 10.9112 0.814116 10.3217 1.04135C9.7324 1.26871 9.25093 1.70432 8.97239 2.26261C9.29459 2.35091 9.56043 2.57496 9.69806 2.87432C9.8357 3.17369 9.83104 3.51746 9.68536 3.81314C9.53968 4.10882 9.26789 4.32587 8.94336 4.40576C9.2132 4.99816 9.70819 5.46356 10.3226 5.70273C10.9371 5.94204 11.6225 5.93606 12.2325 5.68631C12.8427 5.43656 13.3293 4.96276 13.5885 4.3658C13.3418 4.31173 13.1213 4.17712 12.9625 3.98411C12.8038 3.79097 12.7164 3.55088 12.7147 3.30279L12.7147 3.30283Z" fill="#63677D" />
		</svg>
	</defs>
	<defs>
		<svg id="grading" viewBox="0 0 18 17" fill="none" xmlns="http://www.w3.org/2000/svg">
			<path d="M2.70602 0.779297H15.3502C15.3987 0.801934 15.4445 0.836787 15.4952 0.845769C16.7713 1.07555 17.6716 1.92337 17.9296 3.19101C18.0016 3.54619 17.9935 3.9215 17.9939 4.28765C17.9993 8.45551 17.9991 12.6233 18 16.7916H0V3.48462C0.0229961 3.42641 0.0569519 3.37 0.0671897 3.30981C0.273796 2.08132 1.16236 1.13742 2.36772 0.868085C2.48145 0.843112 2.59319 0.80916 2.70584 0.779334L2.70602 0.779297ZM14.773 7.07242H3.08224V7.6998H14.773V7.07242ZM14.773 8.90167H3.08224V9.52905H14.773V8.90167ZM14.773 14.3591H3.08224V14.987H14.773V14.3591ZM10.674 10.7518H3.08201V11.3791H10.674V10.7518ZM14.773 12.6653H6.11451V13.2926H14.7726L14.773 12.6653ZM3.61345 3.56615L3.85868 5.56249L4.25375 5.34529L4.19715 4.91627L4.85668 4.55354L5.1912 4.82931L5.61214 4.5981L4.05254 3.32485L3.61345 3.56615ZM4.06331 3.90409L4.07355 3.89816L4.57965 4.32L4.14794 4.55714L4.06331 3.90409ZM5.70018 2.61162L5.98871 3.13657L5.46412 3.4251L5.63695 3.73932L6.16135 3.45061L6.44844 3.97272L6.76015 3.8015L6.47323 3.27926L6.99782 2.99073L6.82499 2.67633L6.30004 2.96486L6.01151 2.44027L5.70018 2.61162Z" fill="#63677D" />
		</svg>
	</defs>
	<defs>
		<svg id="download" width="20" height="20" viewBox="0 0 20 20" fill="none" xmlns="http://www.w3.org/2000/svg">
			<path d="M19 13V17C19 17.5304 18.7893 18.0391 18.4142 18.4142C18.0391 18.7893 17.5304 19 17 19H3C2.46957 19 1.96086 18.7893 1.58579 18.4142C1.21071 18.0391 1 17.5304 1 17V13" stroke="#4F9573" stroke-width="2" stroke-linecap="round" stroke-linejoin="round" />
			<path d="M5 8L10 13L15 8" stroke="#4F9573" stroke-width="2" stroke-linecap="round" stroke-linejoin="round" />
			<path d="M10 13V1" stroke="#4F9573" stroke-width="2" stroke-linecap="round" stroke-linejoin="round" />
		</svg>
	</defs>
	<defs>
		<svg id="pick_color" width="20" height="20" viewBox="0 0 20 20" fill="none" xmlns="http://www.w3.org/2000/svg">
			<path d="M16.2056 15.0156C16.0263 15.0156 15.8409 14.989 15.6544 14.9364C15.2488 14.8144 14.9236 14.5476 14.6815 14.1411C14.6746 14.1296 14.6681 14.1171 14.6627 14.1048C14.4899 13.719 14.4875 13.3031 14.6554 12.8686C14.8075 12.4732 15.1 12.1776 15.5251 11.9902C15.9683 11.8122 16.3857 11.7884 16.7884 11.9034C16.7986 11.9061 16.8086 11.9098 16.8183 11.9135C17.2422 12.0771 17.5608 12.348 17.7652 12.7196C17.7701 12.7292 17.7754 12.7384 17.7795 12.748C17.9593 13.1579 17.9689 13.5704 17.8075 13.9741C17.6461 14.3585 17.3473 14.6563 16.9171 14.8665C16.679 14.9678 16.4452 15.0156 16.2055 15.0156L16.2056 15.0156ZM15.2992 13.7983C15.4478 14.0409 15.6288 14.1913 15.8514 14.2585C16.1222 14.3347 16.3839 14.3264 16.6243 14.2242C16.8832 14.0972 17.0618 13.9252 17.1543 13.7061C17.2397 13.4924 17.2357 13.275 17.1392 13.0467C17.0172 12.833 16.8339 12.6793 16.5791 12.5783C16.3309 12.5111 16.0721 12.532 15.7986 12.6408C15.5598 12.7466 15.3978 12.9057 15.3144 13.1227C15.2181 13.3717 15.2129 13.5927 15.2993 13.7982L15.2992 13.7983Z" fill="black" />
			<path d="M11.6403 19.7458C10.3288 19.7458 8.93428 19.508 7.49596 19.0391C6.47961 18.7165 5.45985 18.1891 4.46779 17.4719C1.14279 14.8027 -0.334036 11.6954 0.0631737 8.2243C0.137059 7.61465 0.318325 6.92586 0.601572 6.17436C1.4524 4.05056 2.77841 2.41406 4.54526 1.30401C6.35742 0.133483 8.42443 -0.253513 10.6703 0.161225C13.7707 0.643929 15.2468 1.5652 15.1724 2.97528C15.1714 2.99219 15.1691 3.0096 15.1655 3.02684C15.1425 3.14177 15.1237 3.24144 15.1081 3.32583C15.1008 3.36819 15.0854 3.40825 15.0636 3.44487C14.9859 3.57457 14.8189 3.81134 14.5387 4.19061C14.2492 4.62094 14.2011 4.73851 14.1948 4.75738C14.1899 4.77709 14.1851 4.78924 14.1769 4.80746C13.9387 5.33897 14.1108 5.88325 14.7023 6.47171C14.8436 6.56776 15.3169 6.91305 17.1961 8.31081C18.3485 9.16311 19.1486 10.0251 19.5729 10.873C20.142 12.0537 20.142 13.4102 19.5752 14.9098C18.7933 16.8366 17.3343 18.2442 15.2357 19.1017C14.0963 19.5301 12.8895 19.7457 11.6403 19.7457L11.6403 19.7458ZM8.94954 0.704499C7.50681 0.704499 6.15255 1.10677 4.9244 1.89932C3.28314 2.93093 2.05154 4.45446 1.25997 6.43004C0.999405 7.12228 0.831618 7.75639 0.764449 8.30723C0.39699 11.519 1.78702 14.4142 4.89564 16.9105C5.81246 17.5729 6.7648 18.0667 7.71201 18.3674C9.08237 18.8136 10.4034 19.0399 11.6403 19.0399C12.8042 19.0399 13.9269 18.8394 14.9776 18.4442C16.8842 17.6653 18.2132 16.3884 18.9175 14.6519C19.4099 13.3485 19.4181 12.179 18.9387 11.1842C18.5673 10.4417 17.8384 9.66426 16.7753 8.87812C14.8762 7.46544 14.3781 7.10257 14.3004 7.0515C14.2753 7.03672 14.2522 7.01882 14.2315 6.99846C13.2055 5.99476 13.2749 5.11207 13.522 4.54152C13.5563 4.43348 13.6475 4.24959 13.9619 3.78295C14.2331 3.415 14.3632 3.22816 14.4259 3.13241C14.4379 3.06673 14.452 2.994 14.4682 2.91404C14.5024 1.72413 12.3614 1.13899 10.5521 0.857204C9.99961 0.755241 9.4634 0.704671 8.94946 0.704671L8.94954 0.704499Z" fill="black" />
			<path d="M9.51469 7.24805C9.29041 7.24805 9.06561 7.21176 8.84658 7.14001C8.28162 6.9548 7.85767 6.60539 7.58643 6.101C7.31782 5.59219 7.28744 5.05148 7.4958 4.4924C7.72387 3.95943 8.1094 3.5634 8.64792 3.29859C9.21125 3.06413 9.75309 3.04294 10.3144 3.20566C10.8927 3.40383 11.3149 3.75225 11.5846 4.24563C11.85 4.76613 11.8697 5.29334 11.6477 5.823C11.4181 6.38435 11.0311 6.78862 10.4988 7.02257C10.1746 7.17133 9.84123 7.24801 9.51468 7.24801L9.51469 7.24805ZM9.59925 3.80711C9.37677 3.80711 9.15462 3.8521 8.93904 3.94175C8.57109 4.12318 8.30674 4.3923 8.15143 4.755C8.02073 5.1067 8.03797 5.44329 8.20988 5.76921C8.39328 6.11073 8.67421 6.34077 9.06697 6.46897C9.43607 6.59047 9.81452 6.5596 10.2098 6.37785C10.5789 6.21595 10.834 5.94667 10.9954 5.55261C11.1366 5.21602 11.1246 4.89749 10.9606 4.57586C10.7798 4.24583 10.4971 4.01497 10.1014 3.87887C9.94229 3.83273 9.76808 3.80712 9.59931 3.80712L9.59925 3.80711Z" fill="black" />
			<path d="M3.46849 12.7812C3.27409 12.7812 3.07591 12.748 2.88053 12.6829C2.45709 12.5551 2.14445 12.2854 1.95926 11.8847C1.73448 11.4835 1.7133 11.0508 1.89752 10.6312C2.03265 10.2327 2.31768 9.92694 2.74591 9.72236C3.17624 9.53765 3.58804 9.52221 3.99819 9.65931C4.45433 9.81464 4.78202 10.0723 4.97382 10.4262C5.18267 10.8638 5.19712 11.292 5.02636 11.7155C4.84837 12.1195 4.57022 12.4221 4.19474 12.6238C4.18505 12.6287 4.17454 12.6339 4.16387 12.6385C3.93762 12.7331 3.70365 12.7812 3.46852 12.7812L3.46849 12.7812ZM3.45387 10.2747C3.31546 10.2747 3.17935 10.3045 3.03699 10.3653C2.79382 10.482 2.63423 10.6485 2.56299 10.8684C2.55872 10.8809 2.55429 10.8929 2.5487 10.9047C2.44707 11.129 2.45709 11.3335 2.58056 11.5482C2.58598 11.5583 2.59156 11.5683 2.59616 11.579C2.69549 11.8 2.8541 11.9371 3.09445 12.0097C3.38179 12.1052 3.62218 12.0951 3.87551 11.9933C4.10406 11.8664 4.26759 11.6856 4.37561 11.4406C4.46805 11.2111 4.45919 10.9878 4.34425 10.7459C4.24673 10.567 4.05692 10.4251 3.77223 10.3281C3.66715 10.2933 3.55911 10.2747 3.45386 10.2747L3.45387 10.2747Z" fill="black" />
			<path d="M6.65971 15.9943C6.46875 15.9943 6.27139 15.9611 6.07305 15.8964C5.65437 15.7829 5.3181 15.5263 5.08957 15.1401C5.08415 15.1305 5.0789 15.1213 5.07446 15.1113C4.89697 14.7356 4.90256 14.3348 5.09039 13.9195C5.24851 13.4951 5.53501 13.1767 5.94223 12.9733C5.95241 12.9684 5.96341 12.9636 5.97408 12.9593C6.37536 12.8063 6.80473 12.7953 7.23834 12.928C7.65457 13.0697 7.969 13.3335 8.18492 13.7161C8.18919 13.7233 8.19264 13.7309 8.19642 13.7383C8.38212 14.1303 8.38408 14.5451 8.20184 14.9702C8.0562 15.3687 7.761 15.671 7.33062 15.8511C7.12325 15.9447 6.89419 15.9943 6.65974 15.9943L6.65971 15.9943ZM5.70674 14.7955C5.83957 15.0135 6.02576 15.1523 6.27548 15.2204C6.5886 15.3215 6.81569 15.3091 7.05015 15.204C7.30678 15.0964 7.46161 14.9406 7.54618 14.7101C7.65274 14.4597 7.65651 14.2553 7.56358 14.0522C7.43437 13.8284 7.25687 13.6808 7.02191 13.6002C6.76626 13.523 6.49271 13.522 6.24199 13.6136C6.00243 13.7373 5.84119 13.9213 5.74907 14.1755C5.74529 14.1847 5.74184 14.1939 5.73757 14.2031C5.63561 14.4237 5.62543 14.6127 5.70671 14.7955L5.70674 14.7955Z" fill="black" />
			<path d="M11.8621 17.4516C11.7035 17.4516 11.5418 17.4289 11.3807 17.3841C11.372 17.3818 11.3638 17.3792 11.3551 17.3759C10.9359 17.2234 10.6103 16.9649 10.3878 16.6072C10.3727 16.5827 10.3607 16.5571 10.3515 16.53C10.2271 16.1466 10.2266 15.7499 10.35 15.3508C10.5165 14.9127 10.8108 14.6017 11.2327 14.4055C11.6524 14.2252 12.0741 14.2034 12.5037 14.3274C12.9639 14.4809 13.2794 14.764 13.4544 15.1748C13.6622 15.5706 13.6754 15.9939 13.4925 16.4004C13.3385 16.7968 13.0327 17.1002 12.5896 17.2874C12.3643 17.3941 12.1153 17.4516 11.8621 17.4516L11.8621 17.4516ZM11.5833 16.7073C11.8352 16.7748 12.0675 16.7536 12.3015 16.6426C12.5798 16.5249 12.7515 16.3586 12.8417 16.1274C12.9443 15.8978 12.9367 15.702 12.8248 15.4934C12.8188 15.4833 12.8138 15.4723 12.8092 15.4613C12.7151 15.2337 12.5512 15.0874 12.2941 15.002C12.0514 14.9321 11.7761 14.9408 11.5204 15.0503C11.2778 15.1632 11.11 15.3386 11.017 15.5813C10.948 15.807 10.9433 16.0386 11.0101 16.2705C11.1457 16.4705 11.3336 16.6139 11.5833 16.7073L11.5833 16.7073Z" fill="black" />
		</svg>
	</defs>
	<defs>
		<svg id="pick_color" width="20" height="20" viewBox="0 0 20 20" fill="none" xmlns="http://www.w3.org/2000/svg">
			<path d="M16.2056 15.0156C16.0263 15.0156 15.8409 14.989 15.6544 14.9364C15.2488 14.8144 14.9236 14.5476 14.6815 14.1411C14.6746 14.1296 14.6681 14.1171 14.6627 14.1048C14.4899 13.719 14.4875 13.3031 14.6554 12.8686C14.8075 12.4732 15.1 12.1776 15.5251 11.9902C15.9683 11.8122 16.3857 11.7884 16.7884 11.9034C16.7986 11.9061 16.8086 11.9098 16.8183 11.9135C17.2422 12.0771 17.5608 12.348 17.7652 12.7196C17.7701 12.7292 17.7754 12.7384 17.7795 12.748C17.9593 13.1579 17.9689 13.5704 17.8075 13.9741C17.6461 14.3585 17.3473 14.6563 16.9171 14.8665C16.679 14.9678 16.4452 15.0156 16.2055 15.0156L16.2056 15.0156ZM15.2992 13.7983C15.4478 14.0409 15.6288 14.1913 15.8514 14.2585C16.1222 14.3347 16.3839 14.3264 16.6243 14.2242C16.8832 14.0972 17.0618 13.9252 17.1543 13.7061C17.2397 13.4924 17.2357 13.275 17.1392 13.0467C17.0172 12.833 16.8339 12.6793 16.5791 12.5783C16.3309 12.5111 16.0721 12.532 15.7986 12.6408C15.5598 12.7466 15.3978 12.9057 15.3144 13.1227C15.2181 13.3717 15.2129 13.5927 15.2993 13.7982L15.2992 13.7983Z" fill="black" />
			<path d="M11.6403 19.7458C10.3288 19.7458 8.93428 19.508 7.49596 19.0391C6.47961 18.7165 5.45985 18.1891 4.46779 17.4719C1.14279 14.8027 -0.334036 11.6954 0.0631737 8.2243C0.137059 7.61465 0.318325 6.92586 0.601572 6.17436C1.4524 4.05056 2.77841 2.41406 4.54526 1.30401C6.35742 0.133483 8.42443 -0.253513 10.6703 0.161225C13.7707 0.643929 15.2468 1.5652 15.1724 2.97528C15.1714 2.99219 15.1691 3.0096 15.1655 3.02684C15.1425 3.14177 15.1237 3.24144 15.1081 3.32583C15.1008 3.36819 15.0854 3.40825 15.0636 3.44487C14.9859 3.57457 14.8189 3.81134 14.5387 4.19061C14.2492 4.62094 14.2011 4.73851 14.1948 4.75738C14.1899 4.77709 14.1851 4.78924 14.1769 4.80746C13.9387 5.33897 14.1108 5.88325 14.7023 6.47171C14.8436 6.56776 15.3169 6.91305 17.1961 8.31081C18.3485 9.16311 19.1486 10.0251 19.5729 10.873C20.142 12.0537 20.142 13.4102 19.5752 14.9098C18.7933 16.8366 17.3343 18.2442 15.2357 19.1017C14.0963 19.5301 12.8895 19.7457 11.6403 19.7457L11.6403 19.7458ZM8.94954 0.704499C7.50681 0.704499 6.15255 1.10677 4.9244 1.89932C3.28314 2.93093 2.05154 4.45446 1.25997 6.43004C0.999405 7.12228 0.831618 7.75639 0.764449 8.30723C0.39699 11.519 1.78702 14.4142 4.89564 16.9105C5.81246 17.5729 6.7648 18.0667 7.71201 18.3674C9.08237 18.8136 10.4034 19.0399 11.6403 19.0399C12.8042 19.0399 13.9269 18.8394 14.9776 18.4442C16.8842 17.6653 18.2132 16.3884 18.9175 14.6519C19.4099 13.3485 19.4181 12.179 18.9387 11.1842C18.5673 10.4417 17.8384 9.66426 16.7753 8.87812C14.8762 7.46544 14.3781 7.10257 14.3004 7.0515C14.2753 7.03672 14.2522 7.01882 14.2315 6.99846C13.2055 5.99476 13.2749 5.11207 13.522 4.54152C13.5563 4.43348 13.6475 4.24959 13.9619 3.78295C14.2331 3.415 14.3632 3.22816 14.4259 3.13241C14.4379 3.06673 14.452 2.994 14.4682 2.91404C14.5024 1.72413 12.3614 1.13899 10.5521 0.857204C9.99961 0.755241 9.4634 0.704671 8.94946 0.704671L8.94954 0.704499Z" fill="black" />
			<path d="M9.51469 7.24805C9.29041 7.24805 9.06561 7.21176 8.84658 7.14001C8.28162 6.9548 7.85767 6.60539 7.58643 6.101C7.31782 5.59219 7.28744 5.05148 7.4958 4.4924C7.72387 3.95943 8.1094 3.5634 8.64792 3.29859C9.21125 3.06413 9.75309 3.04294 10.3144 3.20566C10.8927 3.40383 11.3149 3.75225 11.5846 4.24563C11.85 4.76613 11.8697 5.29334 11.6477 5.823C11.4181 6.38435 11.0311 6.78862 10.4988 7.02257C10.1746 7.17133 9.84123 7.24801 9.51468 7.24801L9.51469 7.24805ZM9.59925 3.80711C9.37677 3.80711 9.15462 3.8521 8.93904 3.94175C8.57109 4.12318 8.30674 4.3923 8.15143 4.755C8.02073 5.1067 8.03797 5.44329 8.20988 5.76921C8.39328 6.11073 8.67421 6.34077 9.06697 6.46897C9.43607 6.59047 9.81452 6.5596 10.2098 6.37785C10.5789 6.21595 10.834 5.94667 10.9954 5.55261C11.1366 5.21602 11.1246 4.89749 10.9606 4.57586C10.7798 4.24583 10.4971 4.01497 10.1014 3.87887C9.94229 3.83273 9.76808 3.80712 9.59931 3.80712L9.59925 3.80711Z" fill="black" />
			<path d="M3.46849 12.7812C3.27409 12.7812 3.07591 12.748 2.88053 12.6829C2.45709 12.5551 2.14445 12.2854 1.95926 11.8847C1.73448 11.4835 1.7133 11.0508 1.89752 10.6312C2.03265 10.2327 2.31768 9.92694 2.74591 9.72236C3.17624 9.53765 3.58804 9.52221 3.99819 9.65931C4.45433 9.81464 4.78202 10.0723 4.97382 10.4262C5.18267 10.8638 5.19712 11.292 5.02636 11.7155C4.84837 12.1195 4.57022 12.4221 4.19474 12.6238C4.18505 12.6287 4.17454 12.6339 4.16387 12.6385C3.93762 12.7331 3.70365 12.7812 3.46852 12.7812L3.46849 12.7812ZM3.45387 10.2747C3.31546 10.2747 3.17935 10.3045 3.03699 10.3653C2.79382 10.482 2.63423 10.6485 2.56299 10.8684C2.55872 10.8809 2.55429 10.8929 2.5487 10.9047C2.44707 11.129 2.45709 11.3335 2.58056 11.5482C2.58598 11.5583 2.59156 11.5683 2.59616 11.579C2.69549 11.8 2.8541 11.9371 3.09445 12.0097C3.38179 12.1052 3.62218 12.0951 3.87551 11.9933C4.10406 11.8664 4.26759 11.6856 4.37561 11.4406C4.46805 11.2111 4.45919 10.9878 4.34425 10.7459C4.24673 10.567 4.05692 10.4251 3.77223 10.3281C3.66715 10.2933 3.55911 10.2747 3.45386 10.2747L3.45387 10.2747Z" fill="black" />
			<path d="M6.65971 15.9943C6.46875 15.9943 6.27139 15.9611 6.07305 15.8964C5.65437 15.7829 5.3181 15.5263 5.08957 15.1401C5.08415 15.1305 5.0789 15.1213 5.07446 15.1113C4.89697 14.7356 4.90256 14.3348 5.09039 13.9195C5.24851 13.4951 5.53501 13.1767 5.94223 12.9733C5.95241 12.9684 5.96341 12.9636 5.97408 12.9593C6.37536 12.8063 6.80473 12.7953 7.23834 12.928C7.65457 13.0697 7.969 13.3335 8.18492 13.7161C8.18919 13.7233 8.19264 13.7309 8.19642 13.7383C8.38212 14.1303 8.38408 14.5451 8.20184 14.9702C8.0562 15.3687 7.761 15.671 7.33062 15.8511C7.12325 15.9447 6.89419 15.9943 6.65974 15.9943L6.65971 15.9943ZM5.70674 14.7955C5.83957 15.0135 6.02576 15.1523 6.27548 15.2204C6.5886 15.3215 6.81569 15.3091 7.05015 15.204C7.30678 15.0964 7.46161 14.9406 7.54618 14.7101C7.65274 14.4597 7.65651 14.2553 7.56358 14.0522C7.43437 13.8284 7.25687 13.6808 7.02191 13.6002C6.76626 13.523 6.49271 13.522 6.24199 13.6136C6.00243 13.7373 5.84119 13.9213 5.74907 14.1755C5.74529 14.1847 5.74184 14.1939 5.73757 14.2031C5.63561 14.4237 5.62543 14.6127 5.70671 14.7955L5.70674 14.7955Z" fill="black" />
			<path d="M11.8621 17.4516C11.7035 17.4516 11.5418 17.4289 11.3807 17.3841C11.372 17.3818 11.3638 17.3792 11.3551 17.3759C10.9359 17.2234 10.6103 16.9649 10.3878 16.6072C10.3727 16.5827 10.3607 16.5571 10.3515 16.53C10.2271 16.1466 10.2266 15.7499 10.35 15.3508C10.5165 14.9127 10.8108 14.6017 11.2327 14.4055C11.6524 14.2252 12.0741 14.2034 12.5037 14.3274C12.9639 14.4809 13.2794 14.764 13.4544 15.1748C13.6622 15.5706 13.6754 15.9939 13.4925 16.4004C13.3385 16.7968 13.0327 17.1002 12.5896 17.2874C12.3643 17.3941 12.1153 17.4516 11.8621 17.4516L11.8621 17.4516ZM11.5833 16.7073C11.8352 16.7748 12.0675 16.7536 12.3015 16.6426C12.5798 16.5249 12.7515 16.3586 12.8417 16.1274C12.9443 15.8978 12.9367 15.702 12.8248 15.4934C12.8188 15.4833 12.8138 15.4723 12.8092 15.4613C12.7151 15.2337 12.5512 15.0874 12.2941 15.002C12.0514 14.9321 11.7761 14.9408 11.5204 15.0503C11.2778 15.1632 11.11 15.3386 11.017 15.5813C10.948 15.807 10.9433 16.0386 11.0101 16.2705C11.1457 16.4705 11.3336 16.6139 11.5833 16.7073L11.5833 16.7073Z" fill="black" />
		</svg>
	</defs>
	<defs>
		<svg id="Layer_1" version="1.1" xmlns="http://www.w3.org/2000/svg" xmlns:xlink="http://www.w3.org/1999/xlink" x="0px" y="0px" viewBox="0 0 309.267 309.267" style="enable-background:new 0 0 309.267 309.267;" xml:space="preserve">
			<g>
				<path style="fill:#E2574C;" d="M38.658,0h164.23l87.049,86.711v203.227c0,10.679-8.659,19.329-19.329,19.329H38.658
                    c-10.67,0-19.329-8.65-19.329-19.329V19.329C19.329,8.65,27.989,0,38.658,0z" />
				<path style="fill:#B53629;" d="M289.658,86.981h-67.372c-10.67,0-19.329-8.659-19.329-19.329V0.193L289.658,86.981z" />
				<path style="fill:#FFFFFF;" d="M217.434,146.544c3.238,0,4.823-2.822,4.823-5.557c0-2.832-1.653-5.567-4.823-5.567h-18.44
                    c-3.605,0-5.615,2.986-5.615,6.282v45.317c0,4.04,2.3,6.282,5.412,6.282c3.093,0,5.403-2.242,5.403-6.282v-12.438h11.153
                    c3.46,0,5.19-2.832,5.19-5.644c0-2.754-1.73-5.49-5.19-5.49h-11.153v-16.903C204.194,146.544,217.434,146.544,217.434,146.544z
                    M155.107,135.42h-13.492c-3.663,0-6.263,2.513-6.263,6.243v45.395c0,4.629,3.74,6.079,6.417,6.079h14.159
                    c16.758,0,27.824-11.027,27.824-28.047C183.743,147.095,173.325,135.42,155.107,135.42z M155.755,181.946h-8.225v-35.334h7.413
                    c11.221,0,16.101,7.529,16.101,17.918C171.044,174.253,166.25,181.946,155.755,181.946z M106.33,135.42H92.964
                    c-3.779,0-5.886,2.493-5.886,6.282v45.317c0,4.04,2.416,6.282,5.663,6.282s5.663-2.242,5.663-6.282v-13.231h8.379
                    c10.341,0,18.875-7.326,18.875-19.107C125.659,143.152,117.425,135.42,106.33,135.42z M106.108,163.158h-7.703v-17.097h7.703
                    c4.755,0,7.78,3.711,7.78,8.553C113.878,159.447,110.863,163.158,106.108,163.158z" />
			</g>
		</svg>
	</defs>
	<defs>
		<svg id="key_alt" viewBox="0 0 15 15" fill="none" xmlns="http://www.w3.org/2000/svg">
			<path d="M9.76057 4.58721L12.0433 2.30444M13.3478 1L12.0433 2.30444L13.3478 1ZM7.07994 7.26784C7.41671 7.60012 7.68442 7.99574 7.86766 8.43191C8.05091 8.86809 8.14606 9.3362 8.14764 9.8093C8.14923 10.2824 8.05722 10.7511 7.8769 11.1885C7.69658 11.6259 7.43153 12.0233 7.09699 12.3579C6.76246 12.6924 6.36506 12.9574 5.92767 13.1378C5.49027 13.3181 5.02153 13.4101 4.54844 13.4085C4.07534 13.4069 3.60722 13.3118 3.17105 13.1285C2.73488 12.9453 2.33926 12.6776 2.00697 12.3408C1.35353 11.6643 0.991962 10.7581 1.00014 9.81756C1.00831 8.877 1.38557 7.97728 2.05067 7.31219C2.71577 6.64709 3.61549 6.26983 4.55604 6.26165C5.4966 6.25348 6.40273 6.61505 7.07929 7.26849L7.07994 7.26784ZM7.07994 7.26784L9.76057 4.58721L7.07994 7.26784ZM9.76057 4.58721L11.7172 6.54387L14 4.2611L12.0433 2.30444L9.76057 4.58721Z" stroke="#4F9573" stroke-width="2" stroke-linecap="round" stroke-linejoin="round" />
		</svg>
	</defs>
	<defs>
		<svg id="menu-delete" viewBox="0 0 20 20" fill="none" xmlns="http://www.w3.org/2000/svg">
			<path d="M16.975 7.42513L16.1417 8.8668L6.03333 3.03346L6.86667 1.5918L9.4 3.05013L10.5333 2.7418L14.1417 4.82513L14.45 5.9668L16.975 7.42513ZM5 15.8335V5.83346H9.225L15 9.1668V15.8335C15 16.2755 14.8244 16.6994 14.5118 17.012C14.1993 17.3245 13.7754 17.5001 13.3333 17.5001H6.66667C6.22464 17.5001 5.80072 17.3245 5.48816 17.012C5.17559 16.6994 5 16.2755 5 15.8335Z" fill="#63677D" />
		</svg>
	</defs>
	<defs>
		<svg id="filter-grading" width="20" height="20" viewBox="0 0 20 20" fill="none" xmlns="http://www.w3.org/2000/svg">
			<g clip-path="url(#clip0_130_8799)">
				<path d="M3 2.5C3.00001 2.06117 3.11553 1.63007 3.33495 1.25004C3.55437 0.87 3.86996 0.554415 4.25 0.335V17.5C4.25 17.8315 4.3817 18.1495 4.61612 18.3839C4.85054 18.6183 5.16848 18.75 5.5 18.75H15.5C15.8315 18.75 16.1495 18.6183 16.3839 18.3839C16.6183 18.1495 16.75 17.8315 16.75 17.5V2.5C16.75 2.16848 16.6183 1.85054 16.3839 1.61612C16.1495 1.3817 15.8315 1.25 15.5 1.25H13V0H15.5C16.163 0 16.7989 0.263392 17.2678 0.732233C17.7366 1.20107 18 1.83696 18 2.5V17.5C18 18.163 17.7366 18.7989 17.2678 19.2678C16.7989 19.7366 16.163 20 15.5 20H5.5C4.83696 20 4.20107 19.7366 3.73223 19.2678C3.26339 18.7989 3 18.163 3 17.5V2.5ZM5.5 0V8.125C5.5 8.24107 5.53232 8.35485 5.59334 8.45358C5.65436 8.55232 5.74168 8.63211 5.84549 8.68402C5.94931 8.73592 6.06553 8.7579 6.18113 8.74747C6.29673 8.73705 6.40714 8.69464 6.5 8.625L8.625 7.03125L10.75 8.625C10.8429 8.69464 10.9533 8.73705 11.0689 8.74747C11.1845 8.7579 11.3007 8.73592 11.4045 8.68402C11.5083 8.63211 11.5956 8.55232 11.6567 8.45358C11.7177 8.35485 11.75 8.24107 11.75 8.125V0H5.5ZM6.75 6.875V1.25H10.5V6.875L9 5.75C8.89182 5.66886 8.76023 5.625 8.625 5.625C8.48977 5.625 8.35818 5.66886 8.25 5.75L6.75 6.875Z" fill="black" />
			</g>
			<defs>
				<clipPath id="clip0_130_8799">
					<rect width="20" height="20" fill="white" />
				</clipPath>
			</defs>
		</svg>
	</defs>
	<defs>
		<svg id="filter-date" width="20" height="20" viewBox="0 0 20 20" fill="none" xmlns="http://www.w3.org/2000/svg">
			<g clip-path="url(#clip0_130_8782)">
				<path d="M5.673 0C5.85865 0 6.0367 0.0737498 6.16797 0.205025C6.29925 0.336301 6.373 0.514348 6.373 0.7V2.009H13.89V0.709C13.89 0.523348 13.9637 0.345301 14.095 0.214025C14.2263 0.0827498 14.4043 0.009 14.59 0.009C14.7757 0.009 14.9537 0.0827498 15.085 0.214025C15.2162 0.345301 15.29 0.523348 15.29 0.709V2.009H18C18.5303 2.009 19.0388 2.21958 19.4139 2.59443C19.7889 2.96929 19.9997 3.47774 20 4.008V18.001C19.9997 18.5313 19.7889 19.0397 19.4139 19.4146C19.0388 19.7894 18.5303 20 18 20H2C1.46974 20 0.961184 19.7894 0.58614 19.4146C0.211096 19.0397 0.00026513 18.5313 0 18.001L0 4.008C0.00026513 3.47774 0.211096 2.96929 0.58614 2.59443C0.961184 2.21958 1.46974 2.009 2 2.009H4.973V0.699C4.97327 0.513522 5.04713 0.335731 5.17838 0.204672C5.30963 0.0736123 5.48752 -1.89263e-07 5.673 0V0ZM1.4 7.742V18.001C1.4 18.0798 1.41552 18.1578 1.44567 18.2306C1.47583 18.3034 1.52002 18.3695 1.57574 18.4253C1.63145 18.481 1.69759 18.5252 1.77039 18.5553C1.84319 18.5855 1.92121 18.601 2 18.601H18C18.0788 18.601 18.1568 18.5855 18.2296 18.5553C18.3024 18.5252 18.3685 18.481 18.4243 18.4253C18.48 18.3695 18.5242 18.3034 18.5543 18.2306C18.5845 18.1578 18.6 18.0798 18.6 18.001V7.756L1.4 7.742ZM6.667 14.619V16.285H5V14.619H6.667ZM10.833 14.619V16.285H9.167V14.619H10.833ZM15 14.619V16.285H13.333V14.619H15ZM6.667 10.642V12.308H5V10.642H6.667ZM10.833 10.642V12.308H9.167V10.642H10.833ZM15 10.642V12.308H13.333V10.642H15ZM4.973 3.408H2C1.92121 3.408 1.84319 3.42352 1.77039 3.45367C1.69759 3.48382 1.63145 3.52802 1.57574 3.58374C1.52002 3.63945 1.47583 3.70559 1.44567 3.77839C1.41552 3.85119 1.4 3.92921 1.4 4.008V6.343L18.6 6.357V4.008C18.6 3.92921 18.5845 3.85119 18.5543 3.77839C18.5242 3.70559 18.48 3.63945 18.4243 3.58374C18.3685 3.52802 18.3024 3.48382 18.2296 3.45367C18.1568 3.42352 18.0788 3.408 18 3.408H15.29V4.337C15.29 4.52265 15.2162 4.7007 15.085 4.83197C14.9537 4.96325 14.7757 5.037 14.59 5.037C14.4043 5.037 14.2263 4.96325 14.095 4.83197C13.9637 4.7007 13.89 4.52265 13.89 4.337V3.408H6.373V4.328C6.373 4.51365 6.29925 4.6917 6.16797 4.82297C6.0367 4.95425 5.85865 5.028 5.673 5.028C5.48735 5.028 5.3093 4.95425 5.17803 4.82297C5.04675 4.6917 4.973 4.51365 4.973 4.328V3.408V3.408Z" fill="black" />
			</g>
			<defs>
				<clipPath id="clip0_130_8782">
					<rect width="20" height="20" fill="white" />
				</clipPath>
			</defs>
		</svg>
	</defs>
	<defs>
		<svg id="excel_alt" width="32px" height="32px" viewBox="0 0 32 32" enable-background="new 0 0 32 32" version="1.1" xml:space="preserve" xmlns="http://www.w3.org/2000/svg" xmlns:xlink="http://www.w3.org/1999/xlink">
			<g id="Files_Folder40" />
			<g id="Files_Folder39" />
			<g id="Files_Folder38" />
			<g id="Files_Folder37" />
			<g id="Files_Folder36" />
			<g id="Files_Folder35" />
			<g id="Files_Folder34" />
			<g id="Files_Folder33" />
			<g id="Files_Folder32" />
			<g id="Files_Folder31" />
			<g id="Files_Folder30" />
			<g id="Files_Folder29" />
			<g id="Files_Folder28" />
			<g id="Files_Folder27" />
			<g id="Files_Folder26" />
			<g id="Files_Folder25" />
			<g id="Files_Folder24" />
			<g id="Files_Folder23" />
			<g id="Files_Folder22" />
			<g id="Files_Folder21" />
			<g id="Files_Folder20" />
			<g id="Files_Folder19" />
			<g id="Files_Folder18" />
			<g id="Files_Folder17" />
			<g id="Files_Folder16" />
			<g id="Files_Folder15" />
			<g id="Files_Folder14" />
			<g id="Files_Folder13" />
			<g id="Files_Folder12" />
			<g id="Files_Folder11" />
			<g id="Files_Folder10" />
			<g id="Files_Folder09" />
			<g id="Files_Folder08" />
			<g id="Files_Folder07" />
			<g id="Files_Folder06" />
			<g id="Files_Folder05" />
			<g id="Files_Folder04" />
			<g id="Files_Folder03" />
			<g id="Files_Folder02" />
			<g id="Files_Folder01">
				<path d="M26.76,8.35L26.46,8L21,1.63l-0.24-0.28C20.57,1.13,20.29,1,20,1h-1H6C5.45,1,5,1.45,5,2v28   c0,0.55,0.45,1,1,1h20c0.55,0,1-0.45,1-1V10V9C27,8.76,26.91,8.53,26.76,8.35z" fill="#fff" stroke="#0fa958" />
				<g>
					<path d="M27,9v1h-7c-0.55,0-1-0.45-1-1V1h1c0.29,0,0.57,0.13,0.76,0.35L21,1.63L26.46,8l0.3,0.35    C26.91,8.53,27,8.76,27,9z" fill="#0fa958" />
				</g>
				<g>
					<path d="M21,19H11c-0.5522,0-1-0.4478-1-1s0.4478-1,1-1h10c0.5522,0,1,0.4478,1,1S21.5522,19,21,19z" fill="#0fa958" />
				</g>
				<g>
					<path d="M20,25h-8c-0.5522,0-1-0.4478-1-1s0.4478-1,1-1h8c0.5522,0,1,0.4478,1,1S20.5522,25,20,25z" fill="#0fa958" />
				</g>
			</g>
		</svg>
	</defs>
	<defs>
		<svg id="attendant" width="21" height="20" viewBox="0 0 21 20" fill="none" xmlns="http://www.w3.org/2000/svg">
			<path d="M19.4923 10.303L21 12.0121L13.9677 20L10.2308 15.7576L11.7385 14.0485L13.9677 16.5697L19.4923 10.303ZM7.53846 15.7576L10.7692 19.3939H0V16.9697C0 14.2909 3.85538 12.1212 8.61539 12.1212L10.6508 12.2545L7.53846 15.7576ZM8.61539 0C9.75786 0 10.8535 0.510821 11.6614 1.42009C12.4692 2.32936 12.9231 3.56259 12.9231 4.84848C12.9231 6.13438 12.4692 7.36761 11.6614 8.27688C10.8535 9.18615 9.75786 9.69697 8.61539 9.69697C7.47291 9.69697 6.37724 9.18615 5.56939 8.27688C4.76154 7.36761 4.30769 6.13438 4.30769 4.84848C4.30769 3.56259 4.76154 2.32936 5.56939 1.42009C6.37724 0.510821 7.47291 0 8.61539 0Z" fill="#63677D" />
		</svg>
	</defs>
  <defs>
    <svg id="csv-icon" xmlns="http://www.w3.org/2000/svg" width="20.005" height="22.857" viewBox="0 0 20.005 22.857">
      <path id="Path_946" data-name="Path 946" d="M20.758,0H32.9l6.434,6.409v15.02A1.429,1.429,0,0,1,37.9,22.857H20.758a1.429,1.429,0,0,1-1.429-1.429v-20A1.429,1.429,0,0,1,20.758,0Z" transform="translate(-19.329)" fill="#259a60"/>
      <path id="Path_947" data-name="Path 947" d="M209.365,6.607h-4.979a1.429,1.429,0,0,1-1.429-1.429V.193Z" transform="translate(-189.385 -0.179)" fill="#0d6b3f"/>
      <text id="CSV" transform="translate(3 15)" fill="#fff" font-size="7" font-family="SegoeUI-Bold, Segoe UI" font-weight="700"><tspan x="0" y="0">CSV</tspan></text>
    </svg>
  </defs>
  <defs>
    <svg id="pdf-icon" xmlns="http://www.w3.org/2000/svg" width="20.005" height="22.857" viewBox="0 0 20.005 22.857">
      <path id="Path_946" data-name="Path 946" d="M20.758,0H32.9l6.434,6.409v15.02A1.429,1.429,0,0,1,37.9,22.857H20.758a1.429,1.429,0,0,1-1.429-1.429v-20A1.429,1.429,0,0,1,20.758,0Z" transform="translate(-19.329)" fill="#e2574c"/>
      <path id="Path_947" data-name="Path 947" d="M209.365,6.607h-4.979a1.429,1.429,0,0,1-1.429-1.429V.193Z" transform="translate(-189.385 -0.179)" fill="#b53629"/>
      <path id="Path_948" data-name="Path 948" d="M99.609,136.489a.539.539,0,0,0,0-1.067H97.836a.553.553,0,0,0-.54.6v4.348c0,.39.221.6.52.6s.52-.216.52-.6v-1.193h1.072a.5.5,0,0,0,.5-.541.494.494,0,0,0-.5-.527H98.337v-1.622Zm-5.99-1.067h-1.3a.573.573,0,0,0-.6.6v4.356a.571.571,0,0,0,.616.583h1.36a2.522,2.522,0,0,0,2.674-2.691,2.588,2.588,0,0,0-2.748-2.846Zm.062,4.465H92.89V136.5H93.6c1.078,0,1.548.722,1.548,1.719,0,.932-.462,1.671-1.47,1.671Zm-4.752-4.465H87.644a.539.539,0,0,0-.566.6v4.348a.547.547,0,1,0,1.089,0V139.1h.805a1.869,1.869,0,0,0,1.3-3.167,1.781,1.781,0,0,0-1.34-.514Zm-.021,2.662h-.74v-1.641h.74a.824.824,0,0,1,0,1.641Z" transform="translate(-84.071 -125.411)" fill="#fff"/>
    </svg>
  </defs>
</svg>
