<svg width="80" height="80" viewBox="0 0 42 52" fill="none" xmlns="http://www.w3.org/2000/svg">
    <path
        d="M30.0693 22.207L22.072 38.686C21.74 39.3917 20.6054 39.7445 19.9689 38.686L11.9784 22.207C8.78914 22.5599 6.3125 25.251 6.3125 28.5164V39.6684H35.7076V28.5164C35.7007 25.2579 33.2378 22.5599 30.0693 22.207Z"
        fill="white" />
    <path
        d="M21.0257 2C17.6981 2 15 4.70501 15 8.02568C15 11.3464 17.705 14.0514 21.0257 14.0514C24.3464 14.0514 27.0514 11.3464 27.0514 8.02568C27.0514 4.70501 24.3533 2 21.0257 2Z"
        fill="white" />
    <path
        d="M9 28.5145V29.5592H11.5044C12.1477 29.5592 12.6735 30.078 12.6735 30.7283C12.6735 31.3717 12.1547 31.8974 11.5044 31.8974H9V33.6823H9.53272C10.1761 33.6823 10.7019 34.2013 10.7019 34.8515C10.7019 35.4948 10.183 36.0206 9.53272 36.0206H9V37.3489H17.0804L11.0962 25C9.84403 25.678 9 27.0064 9 28.5145Z"
        fill="#4F9573" />
    <path
        d="M31.657 25.0142L25.6797 37.3423H33.7255V28.5147C33.7255 27.0135 32.8884 25.6991 31.657 25.0142Z"
        fill="#4F9573" />
    <path
        d="M21.0075 16.7073C25.615 16.7073 29.3646 12.9645 29.3646 8.35015C29.3646 3.74274 25.6081 0 21.0075 0C16.4069 0 12.6504 3.74274 12.6504 8.35711C12.6504 12.9577 16.4 16.7073 21.0075 16.7073ZM21.0075 2.32447C24.3351 2.32447 27.0332 5.02948 27.0332 8.35015C27.0332 11.6708 24.3282 14.3758 21.0075 14.3758C17.6868 14.3758 14.9818 11.6708 14.9818 8.35015C14.9818 5.02948 17.6799 2.32447 21.0075 2.32447Z"
        fill="#194F82" />
    <path
        d="M29.3572 19.8275C28.9076 19.8275 28.5063 20.0834 28.3057 20.4916L24.3347 28.6688L23.8435 24.5525L25.324 23.2518C25.919 22.7399 25.8221 21.9789 25.324 21.5015L21.7681 18.3814C21.3322 17.994 20.6681 17.994 20.2322 18.3814L16.6763 21.5015C16.1575 21.9234 16.1298 22.816 16.6763 23.2518L18.1568 24.5525L17.6794 28.6134L13.7361 20.4915C13.5354 20.0833 13.0997 19.8273 12.65 19.8273C7.86268 19.8273 3.96777 23.7223 3.96777 28.5096V40.8307C3.96777 41.4741 4.48658 41.9999 5.13691 41.9999H36.8635C37.5068 41.9999 38.0326 41.481 38.0326 40.8307V28.5166C38.0396 23.7224 34.1447 19.8275 29.3572 19.8275ZM21.0071 20.8099L22.792 22.3803L21.9549 23.1137H20.0524L19.2222 22.3803L21.0071 20.8099ZM22.446 32.5637L21.0209 35.497L19.575 32.5014L20.4052 25.438H21.6159L22.446 32.5637ZM35.7012 39.6686H6.313V28.5166C6.313 25.2581 8.7828 22.5601 11.9789 22.2073L19.9762 38.6862C20.6126 39.7447 21.7404 39.3919 22.0794 38.6862L30.0699 22.2073C33.2384 22.5601 35.7081 25.2581 35.7081 28.5166V39.6686H35.7012Z"
        fill="#194F82" />
    <path d="M21.0201 35.5038L22.4452 32.5636L21.6082 25.4448H20.4045L19.5674 32.5082L21.0201 35.5038Z"
        fill="white" />
    <path d="M20.0588 23.1063H21.9544L22.7915 22.3799L21.0066 20.8096L19.2217 22.3799L20.0588 23.1063Z"
        fill="white" />
</svg>