<svg>
	<defs>
		<svg id="graduate_hat" xmlns="http://www.w3.org/2000/svg" width="21.051" height="15" viewBox="0 0 21.051 15">
			<g id="Group_2625" data-name="Group 2625">
				<path id="Path_2572" data-name="Path 2572" d="M7.279,15.649v5.042a6.166,6.166,0,0,1,3.614-.018,35.012,35.012,0,0,1,4.8,2.433,8.128,8.128,0,0,1,2-2.195c1.078-.694,1.909-1.225,1.909-1.225v-3.9L16.28,18.725Z" transform="translate(-2.363 -8.106)" />
				<path id="Path_2573" data-name="Path 2573" d="M2.413,10.694,13.8,14.346l7.248-6.471L9.265,4.48,0,9.921l1.47.47v4.136H.817v2.757H3.1V14.527H2.413Z" transform="translate(0 -4.48)" />
			</g>
		</svg>
	</defs>
	<defs>
		<svg id="list_alt" xmlns="http://www.w3.org/2000/svg" width="17.143" height="15" viewBox="0 0 17.143 15">
			<path id="Icon_material-subject" data-name="Icon material-subject" d="M16.714,20.357H6V22.5H16.714Zm6.429-8.571H6v2.143H23.143ZM6,18.214H23.143V16.071H6ZM6,7.5V9.643H23.143V7.5Z" transform="translate(-6 -7.5)" />
		</svg>
	</defs>
	<defs>
		<svg id="mathematics_whiteboard" xmlns="http://www.w3.org/2000/svg" width="18.351" height="16.936" viewBox="0 0 18.351 16.936">
			<g id="Group_2567" data-name="Group 2567" transform="translate(0 0)">
				<path id="Path_1044" data-name="Path 1044" d="M6.763,8.856H7.7V7.293H9.258V6.362H7.7V4.8H6.763V6.362H5.2v.932H6.763Z" transform="translate(-2.163 -2.703)" />
				<path id="Path_1045" data-name="Path 1045" d="M21.48,15.631l1.105,1.106.659-.659-1.106-1.105,1.106-1.105-.659-.659L21.48,14.314l-1.106-1.106-.659.659,1.105,1.106-1.105,1.105.659.659Z" transform="translate(-8.2 -6.201)" />
				<rect id="Rectangle_1183" data-name="Rectangle 1183" width="4.058" height="0.933" transform="translate(3.037 8.471)" />
				<rect id="Rectangle_1184" data-name="Rectangle 1184" width="4.058" height="0.932" transform="translate(11.515 2.095)" />
				<rect id="Rectangle_1185" data-name="Rectangle 1185" width="4.058" height="0.932" transform="translate(11.515 3.849)" />
				<path id="Path_1046" data-name="Path 1046" d="M18.35,1.211H0V13.5H6.688l-2.3,4.649H6.161l.789-1.6h4.119l.79,1.6h1.8L11.333,13.5h7.017V1.211ZM7.535,15.359,8.452,13.5H9.567l.917,1.861Zm10.024-2.651H.791V2H17.56V12.708h0Z" transform="translate(0 -1.211)" />
			</g>
		</svg>
	</defs>
	<defs>
		<svg id="fence_alt" xmlns="http://www.w3.org/2000/svg" width="15.03" height="15.03" viewBox="0 0 15.03 15.03">
			<path id="Icon_awesome-hashtag" data-name="Icon awesome-hashtag" d="M14.784,7.286l.24-1.342a.4.4,0,0,0-.4-.473h-2.51l.491-2.747a.4.4,0,0,0-.4-.473H10.849a.4.4,0,0,0-.4.332L9.937,5.471H6.627l.491-2.747a.4.4,0,0,0-.4-.473H5.358a.4.4,0,0,0-.4.332L4.446,5.471H1.793a.4.4,0,0,0-.4.332l-.24,1.342a.4.4,0,0,0,.4.473h2.51L3.3,11.912H.642a.4.4,0,0,0-.4.332l-.24,1.342a.4.4,0,0,0,.4.473h2.51l-.491,2.747a.4.4,0,0,0,.4.473H4.181a.4.4,0,0,0,.4-.332l.516-2.889H8.4l-.491,2.747a.4.4,0,0,0,.4.473H9.672a.4.4,0,0,0,.4-.332l.516-2.889h2.654a.4.4,0,0,0,.4-.332l.24-1.342a.4.4,0,0,0-.4-.473h-2.51l.767-4.294h2.654a.4.4,0,0,0,.4-.332Zm-6,4.626H5.477l.767-4.294H9.553Z" transform="translate(0 -2.25)" />
		</svg>
	</defs>
	<defs>
		<svg id="clock" xmlns="http://www.w3.org/2000/svg" width="15.03" height="15" viewBox="0 0 15.03 15">
			<path id="time-svgrepo-com" d="M7.515.061A7.5,7.5,0,1,0,15.03,7.576,7.524,7.524,0,0,0,7.515.061Zm.5,7.735a.5.5,0,0,1-.5.5H3.507a.5.5,0,1,1,0-1H7.014V1.784a.5.5,0,0,1,1,0Z" transform="translate(0 -0.061)" />
		</svg>
	</defs>
	<defs>
		<svg id="thumb_up" width="24px" height="24px" viewBox="0 0 24 24" xmlns="http://www.w3.org/2000/svg">
		<g>
			<path fill="none" d="M0 0h24v24H0z"/>
			<path d="M2 9h3v12H2a1 1 0 0 1-1-1V10a1 1 0 0 1 1-1zm5.293-1.293l6.4-6.4a.5.5 0 0 1 .654-.047l.853.64a1.5 1.5 0 0 1 .553 1.57L14.6 8H21a2 2 0 0 1 2 2v2.104a2 2 0 0 1-.15.762l-3.095 7.515a1 1 0 0 1-.925.619H8a1 1 0 0 1-1-1V8.414a1 1 0 0 1 .293-.707z" />
		</g>
		</svg>
	</defs>
	<defs>
		<svg id="thumb_down" width="24px" height="24px" viewBox="0 0 24 24" xmlns="http://www.w3.org/2000/svg">
		<g>
			<path fill="none" d="M0 0h24v24H0z"/>
			<path d="M22 15h-3V3h3a1 1 0 0 1 1 1v10a1 1 0 0 1-1 1zm-5.293 1.293l-6.4 6.4a.5.5 0 0 1-.654.047L8.8 22.1a1.5 1.5 0 0 1-.553-1.57L9.4 16H3a2 2 0 0 1-2-2v-2.104a2 2 0 0 1 .15-.762L4.246 3.62A1 1 0 0 1 5.17 3H16a1 1 0 0 1 1 1v11.586a1 1 0 0 1-.293.707z" />
		</g>
		</svg>
	</defs>
	<defs>
		<svg id="play_circle" xmlns="http://www.w3.org/2000/svg" width="21" height="21" viewBox="0 0 21 21">
			<path id="Icon_ionic-ios-play-circle" data-name="Icon ionic-ios-play-circle" d="M13.875,3.375a10.5,10.5,0,1,0,10.5,10.5A10.5,10.5,0,0,0,13.875,3.375Zm4.23,10.7-6.926,4.19a.225.225,0,0,1-.338-.2V9.685a.224.224,0,0,1,.338-.2l6.926,4.19A.231.231,0,0,1,18.105,14.072Z" transform="translate(-3.375 -3.375)" />
		</svg>
	</defs>
	<defs>
		<svg id="arrow_round_next" xmlns="http://www.w3.org/2000/svg" width="20.243" height="13.501" viewBox="0 0 20.243 13.501">
			<path id="Icon_ionic-ios-arrow-round-back" data-name="Icon ionic-ios-arrow-round-back" d="M20.791,11.51a.919.919,0,0,0-.007,1.294l4.268,4.282H8.789a.914.914,0,0,0,0,1.828H25.052L20.777,23.2a.925.925,0,0,0,.007,1.294.91.91,0,0,0,1.287-.007l5.794-5.836h0a1.026,1.026,0,0,0,.19-.288.872.872,0,0,0,.07-.352.916.916,0,0,0-.26-.64l-5.794-5.836A.9.9,0,0,0,20.791,11.51Z" transform="translate(-7.882 -11.252)" />
		</svg>
	</defs>
	<defs>
		<svg id="arrow_round_back" xmlns="http://www.w3.org/2000/svg" width="20.243" height="13.501" viewBox="0 0 20.243 13.501">
			<path id="Icon_ionic-ios-arrow-round-back" data-name="Icon ionic-ios-arrow-round-back" d="M15.216,11.51a.919.919,0,0,1,.007,1.294l-4.268,4.282H27.218a.914.914,0,0,1,0,1.828H10.955L15.23,23.2a.925.925,0,0,1-.007,1.294.91.91,0,0,1-1.287-.007L8.142,18.647h0a1.026,1.026,0,0,1-.19-.288.872.872,0,0,1-.07-.352.916.916,0,0,1,.26-.64l5.794-5.836A.9.9,0,0,1,15.216,11.51Z" transform="translate(-7.882 -11.252)" />
		</svg>
	</defs>
	<defs>
		<svg id="drive_file" xmlns="http://www.w3.org/2000/svg" width="16.8" height="21" viewBox="0 0 16.8 21">
			<path id="Icon_material-insert-drive-file" data-name="Icon material-insert-drive-file" d="M8.1,3A2.1,2.1,0,0,0,6.01,5.1L6,21.9A2.1,2.1,0,0,0,8.089,24H20.7a2.106,2.106,0,0,0,2.1-2.1V9.3L16.5,3Zm7.35,7.35V4.575l5.775,5.775Z" transform="translate(-6 -3)" />
		</svg>
	</defs>
	<defs>
		<svg id="eye" xmlns="http://www.w3.org/2000/svg" width="22.5" height="15" viewBox="0 0 22.5 15">
			<path id="Icon_awesome-eye" data-name="Icon awesome-eye" d="M22.364,11.43A12.529,12.529,0,0,0,11.25,4.5,12.531,12.531,0,0,0,.136,11.43a1.264,1.264,0,0,0,0,1.14A12.529,12.529,0,0,0,11.25,19.5a12.531,12.531,0,0,0,11.114-6.93A1.264,1.264,0,0,0,22.364,11.43Zm-11.114,6.2A5.625,5.625,0,1,1,16.875,12,5.625,5.625,0,0,1,11.25,17.625Zm0-9.375a3.723,3.723,0,0,0-.989.148,1.869,1.869,0,0,1-2.613,2.613,3.741,3.741,0,1,0,3.6-2.761Z" transform="translate(0 -4.5)" fill="#757b97" />
		</svg>
	</defs>
	<defs>
		<svg id="heart" xmlns="http://www.w3.org/2000/svg" width="16.975" height="15" viewBox="0 0 16.975 15">
			<path id="XMLID_810_" d="M15.567,28.918a4.812,4.812,0,0,0-6.812,0l-.262.262-.269-.269A4.816,4.816,0,0,0,0,32.319a4.775,4.775,0,0,0,1.415,3.4l6.561,6.561A.736.736,0,0,0,8.5,42.5a.749.749,0,0,0,.521-.215l6.543-6.55a4.82,4.82,0,0,0,.007-6.816Zm-10.809,1.8A1.562,1.562,0,0,0,3.2,32.28a.715.715,0,0,1-1.429,0A2.989,2.989,0,0,1,4.755,29.3a.714.714,0,0,1,.715.715A.706.706,0,0,1,4.758,30.721Z" transform="translate(0 -27.5)" fill="#757b97" />
		</svg>
	</defs>
	<defs>
		<svg id="heart_outline" xmlns="http://www.w3.org/2000/svg" width="18.54" height="17.01" viewBox="0 0 18.54 17.01">
			<path id="Icon_material-favorite" data-name="Icon material-favorite" d="M12.27,21.51l-1.344-1.224C6.152,15.957,3,13.1,3,9.6A5.049,5.049,0,0,1,8.1,4.5,5.551,5.551,0,0,1,12.27,6.437,5.551,5.551,0,0,1,16.441,4.5a5.049,5.049,0,0,1,5.1,5.1c0,3.5-3.152,6.359-7.926,10.7Z" transform="translate(-3 -4.5)" />
		</svg>
	</defs>
	<defs>
		<svg id="doc_course" xmlns="http://www.w3.org/2000/svg" width="15.6" height="18" viewBox="0 0 15.6 18">
		<g id="files-svgrepo-com" transform="translate(-2 -1)">
			<path id="Path_1007" data-name="Path 1007" d="M13.8,2H8.28a1.285,1.285,0,0,0-.88.4,1.285,1.285,0,0,0-.4.88V13.52A1.377,1.377,0,0,0,8.28,14.8h7.84a1.377,1.377,0,0,0,1.28-1.28V5.6Z" transform="translate(-0.8)" fill="#757b97" stroke="#757b97" stroke-linecap="round" stroke-linejoin="round" stroke-width="2"/>
			<path id="Path_1008" data-name="Path 1008" d="M3,7.6V17.84a1.285,1.285,0,0,0,.4.88,1.285,1.285,0,0,0,.88.4h7.84" transform="translate(0 -1.12)" fill="none" stroke="#757b97" stroke-linecap="round" stroke-linejoin="round" stroke-width="2"/>
			<path id="Path_1009" data-name="Path 1009" d="M15,2V6h4" transform="translate(-2.4)" fill="none" stroke="#fff" stroke-linecap="round" stroke-linejoin="round" stroke-width="2"/>
		</g>
		</svg>
	</defs>
	<defs>
		<svg id="question" xmlns="http://www.w3.org/2000/svg" width="14.643" height="15" viewBox="0 0 14.643 15">
		<g id="_-Product-Icons" data-name="ðŸ”-Product-Icons" transform="translate(-1 -2)">
			<g id="ic_fluent_notebook_question_mark_24_filled" transform="translate(1 2)">
			<path id="_-Color" data-name="ðŸŽ¨-Color" d="M4.929,9.143A3.929,3.929,0,1,1,1,13.071,3.929,3.929,0,0,1,4.929,9.143ZM12.249,2a1.607,1.607,0,0,1,1.607,1.607V14.679a1.607,1.607,0,0,1-1.607,1.607H8.278a4.644,4.644,0,0,0-5.135-7.5V3.607A1.607,1.607,0,0,1,4.75,2ZM4.929,14.771a.446.446,0,1,0,.446.446A.446.446,0,0,0,4.929,14.771Zm0-4.2A1.321,1.321,0,0,0,3.6,11.97a.357.357,0,1,0,.714-.007.609.609,0,0,1,.61-.675.632.632,0,0,1,.61.678.7.7,0,0,1-.227.484l-.071.081-.19.207a1.417,1.417,0,0,0-.479,1.048.357.357,0,1,0,.714,0,.713.713,0,0,1,.231-.5l.072-.082L5.779,13a1.4,1.4,0,0,0,.474-1.034A1.344,1.344,0,0,0,4.929,10.574Zm10.179.713a.536.536,0,0,1,.531.463l0,.073v1.07a.536.536,0,0,1-.463.531l-.073,0h-.536V11.287Zm0-2.857a.536.536,0,0,1,.531.463l0,.073v1.07a.536.536,0,0,1-.463.531l-.073,0h-.536V8.43Zm0-2.857a.536.536,0,0,1,.531.463l0,.073v1.07a.536.536,0,0,1-.463.531l-.073,0h-.536V5.573ZM10.82,4.5H6.18a.536.536,0,0,0-.531.463l0,.073V6.108a.536.536,0,0,0,.463.531l.073,0h4.64a.536.536,0,0,0,.531-.463l0-.073V5.034A.536.536,0,0,0,10.82,4.5Z" transform="translate(-1 -2)" fill="#757b97"/>
			</g>
		</g>
		</svg>
	</defs>
	<defs>
		<svg xmlns="http://www.w3.org/2000/svg" width="14" height="15" viewBox="0 0 14 15" id="create_by">
		<g id="record-create-svgrepo-com" transform="translate(-22 -20)">
			<path id="Path_2800" data-name="Path 2800" d="M68.4,27.1h0" transform="translate(-34.8 -5.325)" fill="#757b97"/>
			<g id="Group_3016" data-name="Group 3016" transform="translate(22 20)">
			<path id="Path_2801" data-name="Path 2801" d="M37.5,23H43a.5.5,0,0,0,.5-.5v-1A1.5,1.5,0,0,0,42,20H38.5A1.5,1.5,0,0,0,37,21.5v1A.5.5,0,0,0,37.5,23Z" transform="translate(-33.25 -20)" fill="#757b97"/>
			<path id="Path_2802" data-name="Path 2802" d="M34.5,25H34a.236.236,0,0,0-.25.25v1a2.006,2.006,0,0,1-2,2h-5.5a2.006,2.006,0,0,1-2-2v-1A.236.236,0,0,0,24,25h-.5A1.5,1.5,0,0,0,22,26.5V37.25a1.5,1.5,0,0,0,1.5,1.5h11a1.5,1.5,0,0,0,1.5-1.5V26.5A1.5,1.5,0,0,0,34.5,25Zm-1.825,8.8a.269.269,0,0,1-.25.25h-2.75a.171.171,0,0,0-.175.175v2.75a.269.269,0,0,1-.25.25h-.5a.269.269,0,0,1-.25-.25v-2.75a.171.171,0,0,0-.175-.175h-2.75a.269.269,0,0,1-.25-.25v-.5a.269.269,0,0,1,.25-.25h2.75a.171.171,0,0,0,.175-.175v-2.75a.269.269,0,0,1,.25-.25h.5a.269.269,0,0,1,.25.25v2.75a.171.171,0,0,0,.175.175h2.75a.269.269,0,0,1,.25.25Z" transform="translate(-22 -23.75)" fill="#757b97"/>
			</g>
		</g>
		</svg>
	</defs>
	<defs>
		<svg id="follower" xmlns="http://www.w3.org/2000/svg" width="14.906" height="17" viewBox="0 0 14.906 17">
		<g id="user-download-option-svgrepo-com" transform="translate(-49.699 -5)">
			<g id="Group_3626" data-name="Group 3626" transform="translate(49.699 5)">
			<path id="Path_4110" data-name="Path 4110" d="M147.611,8.616c2.394,0,3.255-2.4,3.48-4.366.278-2.425-.869-4.251-3.48-4.251s-3.759,1.825-3.48,4.251C144.356,6.219,145.217,8.617,147.611,8.616Z" transform="translate(-141.134)" fill="#757b97"/>
			<path id="Path_4111" data-name="Path 4111" d="M49.41,297.394c.077,0,.154,0,.23.007a1.828,1.828,0,0,0-.4-.421,6.5,6.5,0,0,0-1.582-.663,6.855,6.855,0,0,1-.7-.315,3.788,3.788,0,0,1-5.56,0,6.855,6.855,0,0,1-.7.315,6.5,6.5,0,0,0-1.582.663c-.8.594-1,1.929-1.163,2.84A16.334,16.334,0,0,0,37.7,302.1c-.02.592.272.675.767.853a14.329,14.329,0,0,0,1.9.526,19.2,19.2,0,0,0,3.8.474,15.271,15.271,0,0,0,1.855-.134,4.1,4.1,0,0,1,3.379-6.428Z" transform="translate(-37.699 -287.78)" fill="#757b97"/>
			<path id="Path_4112" data-name="Path 4112" d="M3.282,6.565A3.282,3.282,0,1,0,0,3.282,3.282,3.282,0,0,0,3.282,6.565Zm-1.351-3a.46.46,0,0,1,.651,0l.24.24V1.65a.46.46,0,1,1,.92,0V3.8l.241-.241a.46.46,0,0,1,.651.651L3.608,5.24a.46.46,0,0,1-.651,0L1.931,4.214A.46.46,0,0,1,1.932,3.564Z" transform="translate(14.906 10.435) rotate(90)" fill="#757b97"/>
			</g>
		</g>
		</svg>
	</defs>
	<defs>
		<svg id="teacher-sym" xmlns="http://www.w3.org/2000/svg" width="14.828" height="12" viewBox="0 0 14.828 12">
		<g id="briefcase-svgrepo-com" transform="translate(0 -3.051)">
			<g id="Group_3625" data-name="Group 3625" transform="translate(0 3.051)">
			<path id="Path_4108" data-name="Path 4108" d="M0,18.393v3.732a1.138,1.138,0,0,0,1.138,1.137H13.691a1.137,1.137,0,0,0,1.138-1.137V18.358L7.416,19.4Z" transform="translate(0 -11.262)" fill="#49b6c9"/>
			<path id="Path_4109" data-name="Path 4109" d="M10.546,5.152V4.19A1.139,1.139,0,0,0,9.408,3.051H5.179A1.138,1.138,0,0,0,4.041,4.19v.962h-2.9A1.138,1.138,0,0,0,0,6.291V9.073l7.413,1.009,7.416-1.045V6.291a1.139,1.139,0,0,0-1.138-1.139ZM9.091,7.334V8.707H5.778V7.051H9.091Zm.363-2.19v.008H5.131V4.737a.594.594,0,0,1,.594-.594H8.861a.594.594,0,0,1,.594.594v.407Z" transform="translate(0 -3.051)" fill="#49b6c9"/>
			</g>
		</g>
		</svg>
	</defs>
	<defs>
		<svg id="link" xmlns="http://www.w3.org/2000/svg" width="22.142" height="19.375" viewBox="0 0 22.142 19.375">
			<g id="folder-web-svgrepo-com" transform="translate(0 -4)">
				<path id="Path_4519" data-name="Path 4519" d="M5.536,16a5.536,5.536,0,1,0,5.536,5.536A5.552,5.552,0,0,0,5.536,16Zm4.082,4.844H8.3a11.463,11.463,0,0,0-.554-2.837A4.267,4.267,0,0,1,9.618,20.844ZM5.536,25.687c-.415,0-1.246-1.315-1.384-3.46H6.919C6.781,24.373,5.951,25.687,5.536,25.687ZM4.152,20.844c.138-2.145.9-3.46,1.384-3.46s1.246,1.315,1.384,3.46Zm-.761-2.837a8.979,8.979,0,0,0-.623,2.837H1.453A4.13,4.13,0,0,1,3.391,18.007ZM1.453,22.228H2.768a11.463,11.463,0,0,0,.554,2.837A4.267,4.267,0,0,1,1.453,22.228Zm6.228,2.837a8.988,8.988,0,0,0,.554-2.837H9.549A3.841,3.841,0,0,1,7.681,25.065Z" transform="translate(0 -3.697)"/>
				<path id="Path_4520" data-name="Path 4520" d="M21.3,6.768H15.14L13.549,4.346A.616.616,0,0,0,13,4H6.076A2.039,2.039,0,0,0,4,6.076v5.4a7.315,7.315,0,0,1,2.768-.554,6.94,6.94,0,0,1,6.919,6.919,7.315,7.315,0,0,1-.554,2.768H21.3a2.039,2.039,0,0,0,2.076-2.076V8.844A2.039,2.039,0,0,0,21.3,6.768Zm.692,10.794L16.04,8.152H21.3a.654.654,0,0,1,.692.692Z" transform="translate(-1.232)"/>
			</g>
		</svg>
	</defs>
  <defs>
    <svg id="person" data-name="user-svgrepo-com (7)" xmlns="http://www.w3.org/2000/svg" width="14.613" height="17" viewBox="0 0 14.613 17">
      <g id="Group_3618" data-name="Group 3618">
        <path id="Path_4489" data-name="Path 4489" d="M139.413,7.619a3.509,3.509,0,0,1-.706.869,2.952,2.952,0,0,1-.976.582,2.018,2.018,0,0,1-1.053.1c-.26-.069-.4-.18-.374-.339.048-.3.519-.478,1.046-.738a2.286,2.286,0,0,0,1.056-1.157,5.511,5.511,0,0,0,.416-1.679,7.183,7.183,0,0,0,.045-.724c0-.121,0-.242,0-.36L138.859,4l-.014-.2-.028-.346a2.724,2.724,0,0,0-.059-.336l-.031-.166-.052-.156a1.681,1.681,0,0,0-.114-.3,2.158,2.158,0,0,0-.81-.956,2.766,2.766,0,0,0-1.254-.419,3.463,3.463,0,0,0-1.17.27,2.337,2.337,0,0,0-.883.644,2.613,2.613,0,0,0-.485.976,4.457,4.457,0,0,0-.1.585l-.035.353c-.007.087-.014.2-.017.3a5.887,5.887,0,0,0,.391,2.476,2.9,2.9,0,0,0,.28.5,2.177,2.177,0,0,0,.364.391,1.957,1.957,0,0,0,.956.405.3.3,0,0,1,.093.031c.035.017.062.042.114.066a.738.738,0,0,1,.218.145c.156.173-.069.319-.388.391a2.136,2.136,0,0,1-.866.007,2.266,2.266,0,0,1-.9-.4,3.4,3.4,0,0,1-1.17-1.742,7.809,7.809,0,0,1-.329-2.49c0-.1.01-.229.017-.319l.021-.294a4.339,4.339,0,0,1,.1-.661,2.19,2.19,0,0,1,.093-.336c.038-.111.069-.218.114-.329a3.8,3.8,0,0,1,.346-.623A3.122,3.122,0,0,1,134.33.492a3.771,3.771,0,0,1,1.333-.447A4.172,4.172,0,0,1,136.349,0a3.824,3.824,0,0,1,.7.076A3.655,3.655,0,0,1,138.354.6a3.224,3.224,0,0,1,1.053.976,4.189,4.189,0,0,1,.675,2.057l.014.132.007.066a.369.369,0,0,0,0-.038V3.81l0,.017,0,.038c.007.09.014.173.017.26.007.17.01.336.01.5a7.538,7.538,0,0,1-.076,1A5.4,5.4,0,0,1,139.413,7.619Z" transform="translate(-128.918 0)" fill="#757b97"/>
        <path id="Path_4490" data-name="Path 4490" d="M34.487,272.2c.007-.2.024-.405.052-.616A3.186,3.186,0,0,1,35,270.278a2.364,2.364,0,0,1,1.2-.925l.007,0,.045-.014a8.748,8.748,0,0,0,2.251-.959,1.327,1.327,0,0,1,.616-.142.166.166,0,0,1,.121.066.169.169,0,0,1,.007.132,1.088,1.088,0,0,1-.28.395,6.346,6.346,0,0,1-2.455,1.541l.031-.01a1.39,1.39,0,0,0-.772.987,4.338,4.338,0,0,0-.1,1.188c.007.208.021.422.042.623a2.435,2.435,0,0,0,.045.291c0,.014,0,.024.007.035s.035.017.048.024c.08.038.156.08.235.114.159.076.325.142.488.211.332.132.672.249,1.018.35a14.107,14.107,0,0,0,2.116.45c.177.031.36.042.54.062s.36.035.54.045.36.028.544.028l.53.014c.377-.007.765-.007,1.112-.031l.267-.014.27-.024c.18-.017.364-.028.544-.055.229-.045.457-.083.682-.142l.339-.08.336-.093a12.414,12.414,0,0,0,1.364-.464c.222-.09.44-.187.651-.287.1-.052.211-.1.312-.159l.048-.028c.007-.052.014-.1.021-.159.017-.156.024-.326.031-.5a6.9,6.9,0,0,0-.038-.98,1.9,1.9,0,0,0-.235-.751,1.028,1.028,0,0,0-.5-.409l.052.014a9.156,9.156,0,0,1-1.79-.731c-.814-.433-1.361-1-1.122-1.226.215-.2.817-.038,1.607.3a8.937,8.937,0,0,0,1.6.516.049.049,0,0,1,.021.007l.021.007a2.244,2.244,0,0,1,.866.512,2.366,2.366,0,0,1,.544.831,3.528,3.528,0,0,1,.215.883c.017.145.028.284.035.422l.007.2,0,.1v.114c0,.232-.01.464-.035.7-.01.121-.024.239-.048.37a2.248,2.248,0,0,1-.114.433l0,.007a.514.514,0,0,1-.215.256c-.08.048-.139.083-.2.118s-.128.069-.194.1c-.128.069-.26.125-.388.187-.26.114-.523.222-.789.319a12.663,12.663,0,0,1-1.617.467c-.274.066-.547.107-.824.163-.277.035-.551.087-.831.111s-.554.055-.838.066l-.422.021-.405,0c.021-.01.042-.024.062-.035-.021.01-.042.024-.062.035a12.815,12.815,0,0,1-1.825.059,13.25,13.25,0,0,1-1.835-.215,12.725,12.725,0,0,1-1.8-.481c-.294-.1-.589-.218-.88-.35-.145-.062-.287-.135-.433-.208-.073-.038-.142-.073-.215-.114s-.139-.076-.232-.135l-.01-.007a.619.619,0,0,1-.256-.319,2.75,2.75,0,0,1-.152-.717c-.021-.208-.031-.405-.038-.6,0-.1,0-.194,0-.3Z" transform="translate(-34.473 -258.944)" fill="#757b97"/>
      </g>
    </svg>
  </defs>
  <defs>
    <svg id="message" xmlns="http://www.w3.org/2000/svg" width="18.403" height="15" viewBox="0 0 18.403 15">
      <g id="chat-svgrepo-com_1_" data-name="chat-svgrepo-com (1)" transform="translate(0 -47.337)">
        <path id="Path_1019" data-name="Path 1019" d="M2.89,145.657a.912.912,0,0,1-.91-.964l.117-2H1.2a1.2,1.2,0,0,1-1.2-1.2v-6.529a1.2,1.2,0,0,1,1.2-1.2H11.4a1.2,1.2,0,0,1,1.2,1.2v6.529a1.2,1.2,0,0,1-1.2,1.2H10.273a.5.5,0,1,1,0-.993H11.4a.2.2,0,0,0,.2-.2v-6.529a.2.2,0,0,0-.2-.2H1.2a.2.2,0,0,0-.2.2v6.529a.2.2,0,0,0,.2.2H2.624a.5.5,0,0,1,.5.526l-.136,2.324L5.9,141.827a.5.5,0,0,1,.339-.133H7.985a.5.5,0,0,1,0,.993H6.431l-2.922,2.724A.907.907,0,0,1,2.89,145.657Z" transform="translate(0 -83.32)" fill="#49b6c9"/>
        <path id="Path_1020" data-name="Path 1020" d="M186.176,61.154h-10.2a.7.7,0,0,0-.7.7V64.26h5.1a.7.7,0,0,1,.7.7v4.123h.064l3.065,2.857a.414.414,0,0,0,.7-.327l-.148-2.531h1.426a.7.7,0,0,0,.7-.7V61.855A.7.7,0,0,0,186.176,61.154Z" transform="translate(-168.971 -13.32)" fill="#49b6c9"/>
        <g id="Group_2463" data-name="Group 2463" transform="translate(2.745 47.337)">
          <path id="Path_1021" data-name="Path 1021" d="M171.163,59.231a.9.9,0,0,1-.618-.245l-2.95-2.75a.5.5,0,0,1-.337-.47V51.641a.2.2,0,0,0-.2-.2h-5.1a.5.5,0,0,1-.5-.5V48.535a1.2,1.2,0,0,1,1.2-1.2h10.2a1.2,1.2,0,0,1,1.2,1.2v6.529a1.2,1.2,0,0,1-1.2,1.2h-.9l.117,2a.9.9,0,0,1-.244.676A.922.922,0,0,1,171.163,59.231Zm-2.911-3.742,2.819,2.629-.136-2.324a.5.5,0,0,1,.5-.526h1.426a.2.2,0,0,0,.2-.2V48.535a.2.2,0,0,0-.2-.2h-10.2a.2.2,0,0,0-.2.2v1.909h4.605a1.2,1.2,0,0,1,1.2,1.2v3.848Z" transform="translate(-158.397 -47.337)" fill="#49b6c9"/>
          <path id="Path_1022" data-name="Path 1022" d="M82.836,213.784H76.877a.5.5,0,0,1,0-.993h5.959a.5.5,0,0,1,0,.993Z" transform="translate(-76.38 -206.844)" fill="#49b6c9"/>
          <path id="Path_1023" data-name="Path 1023" d="M103.139,284.632H98.753a.5.5,0,1,1,0-.993h4.387a.5.5,0,1,1,0,.993Z" transform="translate(-97.47 -275.146)" fill="#49b6c9"/>
        </g>
      </g>
    </svg>
  </defs>
  <defs>
    <svg id="heart-red" xmlns="http://www.w3.org/2000/svg" width="19.54" height="18.185" viewBox="0 0 19.54 18.185">
      <path id="Icon_material-favorite" data-name="Icon material-favorite" d="M12.27,21.51l-1.344-1.224C6.152,15.957,3,13.1,3,9.6A5.049,5.049,0,0,1,8.1,4.5,5.551,5.551,0,0,1,12.27,6.437,5.551,5.551,0,0,1,16.441,4.5a5.049,5.049,0,0,1,5.1,5.1c0,3.5-3.152,6.359-7.926,10.7Z" transform="translate(-2.5 -4)" stroke-width="1"/>
    </svg>
  </defs>
  <defs>
    <svg id="message-white" xmlns="http://www.w3.org/2000/svg" width="18.403" height="15" viewBox="0 0 18.403 15">
      <g id="chat-svgrepo-com_1_" data-name="chat-svgrepo-com (1)" transform="translate(0 -47.337)">
        <path id="Path_1019" data-name="Path 1019" d="M2.89,145.657a.912.912,0,0,1-.91-.964l.117-2H1.2a1.2,1.2,0,0,1-1.2-1.2v-6.529a1.2,1.2,0,0,1,1.2-1.2H11.4a1.2,1.2,0,0,1,1.2,1.2v6.529a1.2,1.2,0,0,1-1.2,1.2H10.273a.5.5,0,1,1,0-.993H11.4a.2.2,0,0,0,.2-.2v-6.529a.2.2,0,0,0-.2-.2H1.2a.2.2,0,0,0-.2.2v6.529a.2.2,0,0,0,.2.2H2.624a.5.5,0,0,1,.5.526l-.136,2.324L5.9,141.827a.5.5,0,0,1,.339-.133H7.985a.5.5,0,0,1,0,.993H6.431l-2.922,2.724A.907.907,0,0,1,2.89,145.657Z" transform="translate(0 -83.32)" fill="#fff"/>
        <path id="Path_1020" data-name="Path 1020" d="M186.176,61.154h-10.2a.7.7,0,0,0-.7.7V64.26h5.1a.7.7,0,0,1,.7.7v4.123h.064l3.065,2.857a.414.414,0,0,0,.7-.327l-.148-2.531h1.426a.7.7,0,0,0,.7-.7V61.855A.7.7,0,0,0,186.176,61.154Z" transform="translate(-168.971 -13.32)" fill="rgba(255,255,255,0.5)"/>
        <g id="Group_2463" data-name="Group 2463" transform="translate(2.745 47.337)">
          <path id="Path_1021" data-name="Path 1021" d="M171.163,59.231a.9.9,0,0,1-.618-.245l-2.95-2.75a.5.5,0,0,1-.337-.47V51.641a.2.2,0,0,0-.2-.2h-5.1a.5.5,0,0,1-.5-.5V48.535a1.2,1.2,0,0,1,1.2-1.2h10.2a1.2,1.2,0,0,1,1.2,1.2v6.529a1.2,1.2,0,0,1-1.2,1.2h-.9l.117,2a.9.9,0,0,1-.244.676A.922.922,0,0,1,171.163,59.231Zm-2.911-3.742,2.819,2.629-.136-2.324a.5.5,0,0,1,.5-.526h1.426a.2.2,0,0,0,.2-.2V48.535a.2.2,0,0,0-.2-.2h-10.2a.2.2,0,0,0-.2.2v1.909h4.605a1.2,1.2,0,0,1,1.2,1.2v3.848Z" transform="translate(-158.397 -47.337)" fill="#fff"/>
          <path id="Path_1022" data-name="Path 1022" d="M82.836,213.784H76.877a.5.5,0,0,1,0-.993h5.959a.5.5,0,0,1,0,.993Z" transform="translate(-76.38 -206.844)" fill="#fff"/>
          <path id="Path_1023" data-name="Path 1023" d="M103.139,284.632H98.753a.5.5,0,1,1,0-.993h4.387a.5.5,0,1,1,0,.993Z" transform="translate(-97.47 -275.146)" fill="#fff"/>
        </g>
      </g>
    </svg>
  </defs>
</svg>
