<svg xmlns="http://www.w3.org/2000/svg" xmlns:xlink="http://www.w3.org/1999/xlink" width="78" height="68" viewBox="0 0 78 68">
    <defs>
        <filter id="Rectangle_1221" x="0" y="0" width="78" height="68" filterUnits="userSpaceOnUse">
        <feOffset dy="3" input="SourceAlpha"/>
        <feGaussianBlur stdDeviation="3" result="blur"/>
        <feFlood flood-color="#aaa" flood-opacity="0.2"/>
        <feComposite operator="in" in2="blur"/>
        <feComposite in="SourceGraphic"/>
        </filter>
    </defs>
    <g id="Group_2756" data-name="Group 2756" transform="translate(-37.404 -38)">
        <g transform="matrix(1, 0, 0, 1, 37.4, 38)" filter="url(#Rectangle_1221)">
        <rect id="Rectangle_1221-2" data-name="Rectangle 1221" width="60" height="50" rx="10" transform="translate(9 6)" fill="#33cce8"/>
        </g>
        <g id="Group_1262" data-name="Group 1262" transform="translate(64.404 57)">
        <g id="Group_1247" data-name="Group 1247">
            <g id="Group_1248" data-name="Group 1248">
            <g id="Group_1247-2" data-name="Group 1247">
                <path id="Path_403" data-name="Path 403" d="M4.4,4.8H8.8a.4.4,0,1,0,0-.8H4.4a.4.4,0,0,0,0,.8" transform="translate(-2.4 -2.4)" fill="#fff" fill-rule="evenodd"/>
                <path id="Path_404" data-name="Path 404" d="M7.6,8H4.4a.4.4,0,1,0,0,.8H7.6a.4.4,0,0,0,0-.8" transform="translate(-2.4 -4.8)" fill="#fff" fill-rule="evenodd"/>
                <path id="Path_405" data-name="Path 405" d="M23.2,17.6A1.2,1.2,0,0,1,22,18.8H2A1.2,1.2,0,0,1,.8,17.6V15.2H23.2Zm-8.7,5.6H9.5a1.533,1.533,0,0,0,.9-1.2V19.6h3.2V22a1.533,1.533,0,0,0,.9,1.2ZM.8,2A1.2,1.2,0,0,1,2,.8H22A1.2,1.2,0,0,1,23.2,2V14.4H.8ZM22,0H2A2,2,0,0,0,0,2V17.6a2,2,0,0,0,2,2H9.6V22c0,.4-1.7,1.2-2.8,1.2a.4.4,0,1,0,0,.8H17.2a.4.4,0,1,0,0-.8c-1.1,0-2.8-.8-2.8-1.2V19.6H22a2,2,0,0,0,2-2V2a2,2,0,0,0-2-2Z" fill="#fff" fill-rule="evenodd"/>
                <path id="Path_406" data-name="Path 406" d="M26.4,11.8a.4.4,0,0,0,.4-.4v-1.21l.961-.424a.4.4,0,0,0-.322-.732l-1.2.528A.4.4,0,0,0,26,9.928V11.4a.4.4,0,0,0,.4.4" transform="translate(-15.6 -5.4)" fill="#fff" fill-rule="evenodd"/>
                <path id="Path_407" data-name="Path 407" d="M20.439,21.034l-1.2.528a.4.4,0,0,0-.239.366V23.4a.4.4,0,1,0,.8,0v-1.21l.961-.424a.4.4,0,0,0-.322-.732" transform="translate(-11.4 -12.6)" fill="#fff" fill-rule="evenodd"/>
                <path id="Path_408" data-name="Path 408" d="M26.2,13.768l-2.4,1.371-2.4-1.371V11.032l.96-.548,1.44-.823,2.4,1.371Zm-8,1.371-2.4-1.371V11.032l2.4-1.371,1.44.823.96.548v2.736ZM21,4.861l2.4,1.371V8.968l-.96.548L21,10.339l-1.44-.823-.96-.548V6.232Zm5.8,5.592L24.2,8.968V6a.4.4,0,0,0-.2-.347l-2.8-1.6a.4.4,0,0,0-.4,0L18,5.653A.4.4,0,0,0,17.8,6V8.968l-2.6,1.485a.4.4,0,0,0-.2.347V14a.4.4,0,0,0,.2.347l2.8,1.6a.4.4,0,0,0,.4,0L21,14.461l2.6,1.486a.4.4,0,0,0,.4,0l2.8-1.6A.4.4,0,0,0,27,14V10.8a.4.4,0,0,0-.2-.347Z" transform="translate(-9 -2.4)" fill="#fff" fill-rule="evenodd"/>
                <path id="Path_409" data-name="Path 409" d="M34.439,21.034l-1.2.528a.4.4,0,0,0-.239.366V23.4a.4.4,0,1,0,.8,0v-1.21l.961-.424a.4.4,0,0,0-.322-.732" transform="translate(-19.8 -12.6)" fill="#fff" fill-rule="evenodd"/>
                <path id="Path_410" data-name="Path 410" d="M27.9,39.8a.6.6,0,1,1-.6.6.6.6,0,0,1,.6-.6m0,2a1.4,1.4,0,1,0-1.4-1.4,1.4,1.4,0,0,0,1.4,1.4" transform="translate(-15.9 -23.4)" fill="#fff" fill-rule="evenodd"/>
            </g>
            </g>
        </g>
        </g>
    </g>
</svg>
