<svg>
  <defs>
    <svg id="menu-hamburger" width="19" height="15" viewBox="0 0 19 15" fill="none"
      xmlns="http://www.w3.org/2000/svg">
      <path fill-rule="evenodd" clip-rule="evenodd" d="M0.75 1.25C0.75 0.918479 0.881696 0.600537 1.11612 0.366117C1.35054 0.131696 1.66848 0 2 0H17C17.3315 0 17.6495 0.131696 17.8839 0.366117C18.1183 0.600537 18.25 0.918479 18.25 1.25C18.25 1.58152 18.1183 1.89946 17.8839 2.13388C17.6495 2.3683 17.3315 2.5 17 2.5H2C1.66848 2.5 1.35054 2.3683 1.11612 2.13388C0.881696 1.89946 0.75 1.58152 0.75 1.25ZM0.75 7.5C0.75 7.16848 0.881696 6.85054 1.11612 6.61612C1.35054 6.3817 1.66848 6.25 2 6.25H17C17.3315 6.25 17.6495 6.3817 17.8839 6.61612C18.1183 6.85054 18.25 7.16848 18.25 7.5C18.25 7.83152 18.1183 8.14946 17.8839 8.38388C17.6495 8.6183 17.3315 8.75 17 8.75H9.5H2C1.66848 8.75 1.35054 8.6183 1.11612 8.38388C0.881696 8.14946 0.75 7.83152 0.75 7.5ZM0.75 13.75C0.75 13.4185 0.881696 13.1005 1.11612 12.8661C1.35054 12.6317 1.66848 12.5 2 12.5H9.5C9.83152 12.5 10.1495 12.6317 10.3839 12.8661C10.6183 13.1005 10.75 13.4185 10.75 13.75C10.75 14.0815 10.6183 14.3995 10.3839 14.6339C10.1495 14.8683 9.83152 15 9.5 15H2C1.66848 15 1.35054 14.8683 1.11612 14.6339C0.881696 14.3995 0.75 14.0815 0.75 13.75Z" fill="white" />
    </svg>

  </defs>
  <defs>
    <svg id="notification" width="18" height="19" viewBox="0 0 18 19" fill="none"
      xmlns="http://www.w3.org/2000/svg">
      <path d="M15.25 10.3663V8.75H14V10.625C14 10.7907 14.0659 10.9497 14.1831 11.0669L15.875 12.7587V13.75H2.125V12.7587L3.81687 11.0669C3.93409 10.9497 3.99996 10.7907 4 10.625V8.125C3.99826 7.24675 4.22831 6.38358 4.66693 5.6227C5.10555 4.86181 5.73719 4.23015 6.49806 3.7915C7.25893 3.35286 8.12209 3.12278 9.00034 3.12449C9.87859 3.1262 10.7408 3.35965 11.5 3.80125V2.40437C10.9051 2.14095 10.2723 1.97305 9.625 1.90688V0.625H8.375V1.90625C6.83411 2.06308 5.4061 2.7857 4.36711 3.93436C3.32811 5.08303 2.75194 6.57615 2.75 8.125V10.3663L1.05812 12.0581C0.940907 12.1753 0.875035 12.3343 0.875 12.5V14.375C0.875 14.5408 0.940848 14.6997 1.05806 14.8169C1.17527 14.9342 1.33424 15 1.5 15H5.875V15.625C5.875 16.4538 6.20424 17.2487 6.79029 17.8347C7.37634 18.4208 8.1712 18.75 9 18.75C9.8288 18.75 10.6237 18.4208 11.2097 17.8347C11.7958 17.2487 12.125 16.4538 12.125 15.625V15H16.5C16.6658 15 16.8247 14.9342 16.9419 14.8169C17.0592 14.6997 17.125 14.5408 17.125 14.375V12.5C17.125 12.3343 17.0591 12.1753 16.9419 12.0581L15.25 10.3663ZM10.875 15.625C10.875 16.1223 10.6775 16.5992 10.3258 16.9508C9.97419 17.3025 9.49728 17.5 9 17.5C8.50272 17.5 8.02581 17.3025 7.67417 16.9508C7.32254 16.5992 7.125 16.1223 7.125 15.625V15H10.875V15.625Z" fill="white" />
    </svg>

  </defs>
  <defs>
    <svg id="dashboard" width="20" height="21" viewBox="0 0 20 21" fill="none"
      xmlns="http://www.w3.org/2000/svg">
      <rect y="0.0161133" width="9.04768" height="8.83727" rx="2" fill="#63677D" />
      <rect x="10.9512" y="0.0161133" width="9.04768" height="8.83727" rx="2" fill="#63677D" fill-opacity="0.5" />
      <rect y="11.1787" width="9.04768" height="8.83727" rx="2" fill="#63677D" fill-opacity="0.5" />
      <rect x="10.9512" y="11.1787" width="9.04768" height="8.83727" rx="2" fill="#63677D" fill-opacity="0.5" />
    </svg>
  </defs>
  <defs>
    <svg id="admission" width="20" height="24" viewBox="0 0 20 24" fill="none"
      xmlns="http://www.w3.org/2000/svg">
      <path d="M17.2519 3.3936C17.2519 2.57685 16.6733 1.9124 15.9621 1.9124H15.1993V3.11145C15.1993 3.31568 15.0539 3.48265 14.8761 3.48265C14.6982 3.48265 14.5528 3.31568 14.5528 3.11145V0.709583C14.5528 0.505352 14.4074 0.338379 14.2296 0.338379C14.0517 0.338379 13.9064 0.505352 13.9064 0.709583V1.90864H12.9593V3.10769C12.9593 3.31192 12.8139 3.47889 12.636 3.47889C12.4582 3.47889 12.3128 3.31192 12.3128 3.10769L12.3127 1.90864V0.709583C12.3127 0.505352 12.1673 0.338379 11.9894 0.338379C11.8116 0.338379 11.6662 0.505352 11.6662 0.709583V1.90864H10.7191V3.10769C10.7191 3.31192 10.5737 3.47889 10.3959 3.47889C10.218 3.47889 10.0726 3.31192 10.0726 3.10769V0.709583C10.0726 0.505352 9.92724 0.338379 9.7494 0.338379C9.57156 0.338379 9.42617 0.505352 9.42617 0.709583V1.90864H8.47909V3.10769C8.47909 3.31192 8.3337 3.47889 8.15586 3.47889C7.97802 3.47889 7.83262 3.31192 7.83262 3.10769L7.83247 1.90864V0.709583C7.83247 0.505352 7.68708 0.338379 7.50923 0.338379C7.33139 0.338379 7.186 0.505352 7.186 0.709583V1.90864H6.23893V3.10769C6.23893 3.31192 6.09353 3.47889 5.91569 3.47889C5.73785 3.47889 5.59245 3.31192 5.59245 3.10769L5.59231 1.90864V0.709583C5.59231 0.505352 5.44691 0.338379 5.26907 0.338379C5.09123 0.338379 4.94583 0.505352 4.94583 0.709583V1.90864H3.99876V3.10769C3.99876 3.31192 3.85336 3.47889 3.67552 3.47889C3.49768 3.47889 3.35229 3.31192 3.35229 3.10769L3.35214 1.90864V0.709583C3.35214 0.505352 3.20674 0.338379 3.0289 0.338379C2.85106 0.338379 2.70566 0.505352 2.70566 0.709583V1.90864H1.2898C0.578591 1.90864 0 2.57313 0 3.38984V4.87104H17.2552V3.39356L17.2519 3.3936Z" fill="#63677D" />
      <path d="M9.18945 9.2442L13.7311 10.848L18.2761 9.2442L13.7311 7.64062L9.18945 9.2442Z" fill="#63677D" />
      <path d="M19.4756 22.5272H9.1088C8.50758 22.5272 8.03239 21.896 8.16173 21.1796C8.25548 20.6599 8.67574 20.2998 9.13798 20.2998H19.4789C19.7665 20.2998 19.9993 20.0325 19.9993 19.7021C19.9993 19.3718 19.7665 19.1045 19.4789 19.1045H9.17684C8.10683 19.1045 7.16943 20.0289 7.09827 21.2575C7.02073 22.6014 7.95158 23.7263 9.10568 23.7263H19.4725C19.7601 23.7263 19.9929 23.459 19.9929 23.1286C19.9961 22.7983 19.7634 22.5272 19.4757 22.5272L19.4756 22.5272Z" fill="#63677D" />
      <path d="M9.50674 13.7431C9.21908 13.7431 8.98633 14.0104 8.98633 14.3407C8.98633 14.6711 9.21908 14.9384 9.50674 14.9384H17.9858C18.587 14.9384 19.0622 15.5695 18.9329 16.2859C18.8391 16.8057 18.4188 17.1657 17.9566 17.1657H9.5069C9.21923 17.1657 8.98648 17.433 8.98648 17.7634C8.98648 18.0937 9.21924 18.361 9.5069 18.361H17.9147C18.9847 18.361 19.9221 17.4366 19.9933 16.208C20.0708 14.8642 19.14 13.7393 17.9859 13.7393L9.50682 13.7394L9.50674 13.7431Z" fill="#63677D" />
      <path d="M17.9532 10.1351V10.8776C17.7916 11.0001 17.6816 11.2079 17.6816 11.4492C17.6816 11.8242 17.9467 12.1323 18.2765 12.1323C18.603 12.1323 18.8713 11.8279 18.8713 11.4492C18.8713 11.2117 18.7646 11.0001 18.5997 10.8776V9.90869L17.9532 10.1351Z" fill="#63677D" />
      <path d="M9.13531 21.0449C8.97042 21.0449 8.82175 21.1675 8.79273 21.3308C8.76683 21.4794 8.81207 21.587 8.85731 21.6501C8.91878 21.7355 9.00926 21.7875 9.10629 21.7875H18.8749C18.8426 21.5424 18.8426 21.2938 18.8749 21.0487H9.13524L9.13531 21.0449Z" fill="#63677D" />
      <path d="M13.7317 11.6272L10.6543 10.5396V13.0007H16.8124V10.5396L13.7317 11.6272Z" fill="#63677D" />
      <path d="M8.51124 18.4581C8.39159 18.2316 8.32373 17.9644 8.33995 17.6748C8.38192 16.9547 8.94773 16.4238 9.57485 16.4238H17.9567C18.1216 16.4238 18.2703 16.3013 18.2993 16.1379C18.3252 15.9894 18.28 15.8817 18.2347 15.8186C18.1733 15.7332 18.0828 15.6812 17.9858 15.6812L9.53911 15.6814C8.98311 15.6814 8.47565 15.2471 8.36238 14.6233C8.20716 13.7621 8.78264 13.0011 9.50665 13.0011H10.011V10.3097L7.99718 9.59703C7.69328 9.48936 7.69328 8.99562 7.99718 8.88795L13.7351 6.86103L17.2552 8.10471V5.61377H0V19.2787C0 20.0954 0.578629 20.7599 1.2898 20.7599H6.51338C6.73334 19.6312 7.51882 18.7403 8.51115 18.4581L8.51124 18.4581ZM5.64408 11.8914H7.90362V14.4863H5.64408V11.8914ZM4.19264 18.5399H1.93622V15.945H4.19576V18.5399H4.19264ZM4.19264 14.4862H1.93622V11.8914H4.19576V14.4862H4.19264ZM4.19264 10.4324H1.93622V7.83756H4.19576V10.4324H4.19264ZM5.64408 18.54V15.9451H7.90362V18.54H5.64408Z" fill="#63677D" />
    </svg>

  </defs>
  <defs>
    <svg id="students" width="20" height="27" viewBox="0 0 20 27" fill="none"
      xmlns="http://www.w3.org/2000/svg">
      <path d="M3.46506 3.08719L3.9062 3.26739L3.86909 3.54763C3.70032 3.57477 3.57176 3.71405 3.57176 3.8809C3.57176 4.03146 3.67558 4.15967 3.81939 4.2031L3.55187 7.74671C3.54105 7.89497 3.57175 8.13052 3.62146 8.27126L3.83905 8.88709C3.88853 9.02804 3.96961 9.02804 4.01887 8.88709L4.23668 8.27126C4.28616 8.13052 4.31753 7.89497 4.30627 7.74671L4.03897 4.2031C4.18211 4.15946 4.28704 4.03187 4.28704 3.8809C4.28704 3.71385 4.15848 3.57498 3.98905 3.54763L3.95525 3.28723L4.97272 3.70424L5.47108 3.90804V5.6362C5.23317 6.18082 5.1015 6.77698 5.1015 7.40237C5.1015 9.95976 7.29485 13.806 10.0003 13.806C12.7067 13.806 14.8995 9.9596 14.8995 7.40237C14.8995 6.77612 14.7674 6.17911 14.529 5.63433V3.90762L15.0274 3.70381L16.5335 3.08719C16.9271 2.92556 16.9271 2.66204 16.5335 2.50103L10.7161 0.120747C10.3222 -0.0402491 9.67807 -0.0402491 9.28374 0.120747L3.46574 2.50103C3.07143 2.66203 3.07143 2.92555 3.46508 3.08719H3.46506Z" fill="#63677D" />
      <path d="M18.8782 19.0766C18.893 18.9303 18.9009 18.7757 18.9009 18.6112C18.9009 13.0811 16.5572 13.3386 13.5661 13.0811C13.5418 14.0932 11.9551 14.9105 9.99921 14.9105C8.04378 14.9105 6.45639 14.0936 6.43337 13.0811C3.44169 13.3392 1.099 13.0811 1.099 18.6112C1.099 18.7757 1.10695 18.93 1.12175 19.0766C0.457952 19.3853 0 20.028 0 20.7745V21.9926C0 22.9569 0.76169 23.7504 1.74693 23.8698C1.78404 24.8613 2.63495 25.6596 3.68669 25.6815L9.60252 26.863L10.0001 26.9426L16.3135 25.6818C17.3653 25.6603 18.2162 24.8615 18.2528 23.87C19.2381 23.7506 20 22.9567 20 21.9928V20.7748C19.9998 20.0276 19.5418 19.3853 18.8782 19.0767L18.8782 19.0766ZM3.77222 24.9307H3.73113C3.09668 24.9307 2.57844 24.4601 2.54265 23.8691C3.52432 23.7461 4.2825 22.9537 4.2825 21.9921V20.7741C4.2825 19.8114 3.5224 19.0181 2.53891 18.8968V17.9611C2.53891 17.3516 3.05318 16.8542 3.69267 16.8345L9.60341 18.015V26.0945L3.77222 24.9307ZM16.2695 24.9307H16.228L10.3975 26.0953V18.0158L16.3083 16.8353C16.9476 16.8546 17.462 17.3524 17.462 17.9619V18.8976C16.4783 19.0185 15.7184 19.8122 15.7184 20.7749V21.9929C15.7184 22.9545 16.4768 23.7465 17.4583 23.8699C17.4223 24.4605 16.9036 24.9309 16.2696 24.9309L16.2695 24.9307Z" fill="#63677D" />
    </svg>

  </defs>

  <defs>
    <svg id="staff" width="20" height="24" viewBox="0 0 20 24" fill="none"
      xmlns="http://www.w3.org/2000/svg">
      <path d="M5.49408 15.5913C4.94698 15.9759 4.2945 16.2324 3.62117 16.2324C2.94769 16.2324 2.29536 15.9759 1.72729 15.5913C0.948697 16.0272 0.359503 16.9504 0.254246 18.0274L0.00176351 20.5148C-0.0192275 20.8225 0.149143 21.1303 0.401637 21.2072C1.41171 21.4638 2.48503 21.5918 3.62136 21.5918C4.23156 21.5918 4.82095 21.5662 5.38902 21.4636L5.57838 19.6428C5.68363 18.5914 6.08348 17.6426 6.71468 16.976C6.44107 16.3862 6.02023 15.8734 5.49413 15.5913L5.49408 15.5913Z" fill="#63677D" />
      <path d="M5.97745 11.7963C5.97745 13.3826 4.92232 14.6685 3.62056 14.6685C2.3188 14.6685 1.26367 13.3826 1.26367 11.7963C1.26367 10.2102 2.3188 8.92432 3.62056 8.92432C4.92232 8.92432 5.97745 10.2102 5.97745 11.7963Z" fill="#63677D" />
      <path d="M19.7633 18.0533C19.6581 16.9507 19.0689 16.0275 18.2691 15.6172C17.722 16.0018 17.0695 16.2583 16.3962 16.2583C15.7227 16.2583 15.0704 16.0018 14.5023 15.6172C13.9762 15.8993 13.5554 16.4121 13.3027 17.0018C13.9341 17.6943 14.3549 18.6686 14.439 19.6944L14.6284 21.4894C15.1966 21.5919 15.8068 21.6177 16.3961 21.6177C17.5114 21.6177 18.5846 21.4639 19.6158 21.2331C19.8683 21.1562 20.0366 20.8485 19.9945 20.5407L19.7633 18.0533Z" fill="#63677D" />
      <path d="M18.751 11.7963C18.751 13.3826 17.6958 14.6685 16.394 14.6685C15.0924 14.6685 14.0371 13.3826 14.0371 11.7963C14.0371 10.2102 15.0924 8.92432 16.394 8.92432C17.6958 8.92432 18.751 10.2102 18.751 11.7963Z" fill="#63677D" />
      <path d="M11.87 17.3862C11.3229 17.7708 10.6705 18.0273 9.99712 18.0273C9.32364 18.0273 8.67131 17.7966 8.12421 17.3862C7.3245 17.8221 6.75642 18.7197 6.63001 19.8223L6.37753 22.3097C6.3354 22.6174 6.50377 22.9508 6.7774 23.0021C7.78747 23.2587 8.86079 23.3867 9.97612 23.3867C11.0915 23.3867 12.1646 23.2585 13.1959 23.0021C13.4483 22.9508 13.6167 22.6176 13.5746 22.3097L13.3642 19.8223C13.259 18.7197 12.6698 17.8221 11.87 17.3862H11.87Z" fill="#63677D" />
      <path d="M12.3544 13.5654C12.3544 15.1517 11.2993 16.4376 9.99751 16.4376C8.69575 16.4376 7.64062 15.1517 7.64062 13.5654C7.64062 11.9793 8.69575 10.6934 9.99751 10.6934C11.2993 10.6934 12.3544 11.9793 12.3544 13.5654Z" fill="#63677D" />
      <path d="M7.28305 8.28297H12.7334C13.1964 8.28297 13.5542 7.82148 13.5542 7.28288V4.6416C12.8597 4.92369 12.0811 5.12887 11.2392 5.23135V5.28269C11.2392 5.89818 10.8394 6.38527 10.3344 6.38527H9.6821C9.17701 6.38527 8.77729 5.898 8.77729 5.28269V5.23135C7.91445 5.12886 7.13586 4.92369 6.44141 4.6416V7.28288C6.44126 7.84703 6.82012 8.28297 7.28309 8.28297H7.28305Z" fill="#63677D" />
      <path d="M9.68292 3.41081H10.3352C10.7982 3.41081 11.1981 3.84672 11.2401 4.4109C12.1029 4.30841 12.8815 4.07748 13.555 3.74422V2.79546C13.555 2.2313 13.1763 1.79536 12.7343 1.79536H11.6611L11.6609 1.25657C11.6609 0.564156 11.1979 0 10.6297 0H9.367C8.79877 0 8.33581 0.564156 8.33581 1.25657V1.79518H7.28361C6.82064 1.79518 6.46289 2.25667 6.46289 2.79527L6.46318 3.74404C7.13667 4.0517 7.93622 4.28264 8.79907 4.41072C8.82006 3.84675 9.19879 3.41081 9.68291 3.41081H9.68292ZM9.15682 1.25662C9.15682 1.12837 9.26207 1.00011 9.36732 1.00011H10.63C10.7563 1.00011 10.8405 1.12837 10.8405 1.25662V1.79522H9.15682L9.15682 1.25662Z" fill="#63677D" />
      <path d="M9.68266 4.23096C9.55642 4.23096 9.45117 4.35921 9.45117 4.51304V5.28239C9.45117 5.43623 9.55642 5.56448 9.68266 5.56448H10.335C10.4612 5.56448 10.5665 5.43623 10.5665 5.28239V4.51304C10.5665 4.35921 10.4612 4.23096 10.335 4.23096H9.68266Z" fill="#63677D" />
    </svg>

  </defs>

  <defs>
    <svg id="classes" width="22" height="22" viewBox="0 0 22 22" fill="none"
      xmlns="http://www.w3.org/2000/svg">
      <path fill-rule="evenodd" clip-rule="evenodd" d="M9.16678 1.83331H12.8335V3.66665H9.16678V1.83331ZM21.0833 1.83331H14.6667V0.916735C14.6667 0.410652 14.2568 0 13.75 0H8.25004C7.74314 0 7.33331 0.410652 7.33331 0.916735V1.83331H0.916735C0.40967 1.83331 0 2.24396 0 2.74988V12.8331H1.45384L7.60196 6.68494C7.96035 6.32655 8.53965 6.32655 8.89804 6.68494L11.9165 9.70359L14.0184 7.60171C14.377 7.24317 14.9563 7.24317 15.3147 7.60171L20.5461 12.8332H22V2.75C22 2.24408 21.5902 1.83343 21.0832 1.83343L21.0833 1.83331Z" fill="#63677D" />
      <path fill-rule="evenodd" clip-rule="evenodd" d="M0.000245397 17.4164C0.000245397 17.9223 0.409957 18.333 0.91698 18.333H8.7871L6.68522 20.4349C6.32684 20.7933 6.32684 21.3727 6.68522 21.7311C6.86394 21.9098 7.09862 21.9997 7.33326 21.9997C7.56793 21.9997 7.8026 21.9098 7.98147 21.7311L11 18.7125L14.0184 21.7311C14.1973 21.9098 14.432 21.9997 14.6667 21.9997C14.9013 21.9997 15.136 21.9098 15.3147 21.7311C15.6731 21.3727 15.6731 20.7933 15.3147 20.4349L13.2128 18.333H21.0829C21.59 18.333 21.9997 17.9223 21.9997 17.4164V14.6665H0L0.000245397 17.4164Z" fill="#63677D" />
      <path fill-rule="evenodd" clip-rule="evenodd" d="M12.5655 11.648C12.207 12.0064 11.6277 12.0064 11.2693 11.648L8.25079 8.62939L4.04688 12.8333H17.9542L14.6672 9.54629L12.5655 11.648Z" fill="#63677D" />
    </svg>


  </defs>

  <defs>
    <svg id="my_teaching" width="22" height="16" viewBox="0 0 22 16" fill="none"
      xmlns="http://www.w3.org/2000/svg">
      <path d="M21.6545 13.8024H21.2196V0.342523C21.2196 0.152787 21.064 0 20.8762 0H1.12144C0.931235 0 0.778067 0.152787 0.778067 0.342523V13.8046H0.343377C0.153168 13.8046 0 13.9598 0 14.1472V15.6575C0 15.8472 0.153168 16 0.343377 16H21.6565C21.8442 16 21.9998 15.8448 21.9998 15.6575L22 14.147C21.9974 13.9572 21.8442 13.8021 21.6542 13.8021L21.6545 13.8024ZM2.87046 15.3153H0.684597V14.4875H2.87046V15.3153ZM14.6967 4.94753H17.463C17.6508 4.94753 17.8064 5.10031 17.8064 5.29005C17.8064 5.47961 17.6508 5.6324 17.463 5.6324H14.6967C14.5089 5.6324 14.3533 5.47721 14.3533 5.28987C14.3533 5.10272 14.5089 4.94753 14.6967 4.94753ZM5.76296 3.45938C6.62493 3.45938 7.32393 4.15902 7.32393 5.01647C7.32393 5.87388 6.62493 6.57356 5.76296 6.57356C4.90081 6.57356 4.20181 5.87392 4.20181 5.01647C4.20181 4.15664 4.90081 3.45938 5.76296 3.45938ZM8.14885 10.018C8.05753 10.0845 8.00309 10.1879 8.00309 10.2964V15.3151L3.55452 15.3153V8.49797C3.5447 8.42906 3.55452 8.20718 3.64584 8.1087C3.66324 8.09134 3.73973 8.04701 3.85844 8.0446H8.04991L10.2728 9.60908C10.3987 9.69776 10.5667 9.69277 10.6877 9.5967L12.8809 7.83252C12.9402 7.78578 12.9822 7.72167 12.9995 7.64777L13.123 7.14269L13.2045 7.19941C13.2121 7.20199 13.2171 7.20199 13.2219 7.20439C13.2417 7.21677 13.2639 7.22416 13.2836 7.23155L13.832 6.14003C13.9235 5.95769 14.1433 5.88138 14.3309 5.97504C14.5137 6.06613 14.5878 6.28801 14.4939 6.47036L13.7679 7.91899L13.8123 8.43648L13.2541 8.53496C13.1923 8.54734 13.133 8.57432 13.0861 8.61625L10.7175 10.7327L8.45739 9.97377C8.35367 9.93923 8.23755 9.95401 8.14865 10.0181L8.14885 10.018ZM21.3115 15.3152H8.69003V14.4873H21.3093L21.3091 15.3152H21.3115Z" fill="#63677D" />
    </svg>

  </defs>

  <defs>
    <svg id="announcement" width="21" height="26" viewBox="0 0 21 26" fill="none"
      xmlns="http://www.w3.org/2000/svg">
      <path d="M0.30667 18.3644C0.11024 18.5713 0 18.8518 0 19.1446C0 19.4372 0.11024 19.7177 0.30667 19.9248L2.24537 21.9668V21.9666C2.44199 22.1731 2.70825 22.2892 2.98606 22.2892C3.26368 22.2892 3.53015 22.1731 3.72676 21.9666C4.41377 21.2438 5.15659 20.5823 5.94752 19.9888L2.1842 16.0249H2.18439C1.6209 16.858 0.99294 17.6406 0.306666 18.3644L0.30667 18.3644Z" fill="#63677D" />
      <path d="M6.79875 4.65283L6.18945 6.41747L15.0681 15.7693L16.7436 15.1275L6.79875 4.65283Z" fill="#63677D" />
      <path d="M4.76562 21.8646L8.59283 25.8956C8.94702 25.405 9.12056 24.7958 9.08131 24.1808C9.04206 23.5657 8.79272 22.9864 8.37947 22.5501L6.41152 20.4771C5.83626 20.9034 5.28641 21.3666 4.76562 21.8645V21.8646Z" fill="#63677D" />
      <path d="M14.3973 16.0261L5.94518 7.12354L4.40606 11.5817C3.93432 12.9439 3.31292 14.2433 2.55469 15.4537L6.48847 19.5971C7.63761 18.7985 8.87122 18.1439 10.1645 17.6471L14.3973 16.0261Z" fill="#63677D" />
      <path d="M13.6614 7.8994C13.2554 7.47304 12.7192 7.21224 12.1479 7.16322C11.5764 7.11418 11.0072 7.28014 10.541 7.63173L13.9159 11.1865C14.2505 10.6957 14.4086 10.0959 14.3619 9.4938C14.3153 8.89177 14.0671 8.32657 13.6615 7.89941L13.6614 7.8994Z" fill="#63677D" />
      <path d="M17.3107 11.6141C17.3902 11.6479 17.4792 11.6471 17.5581 11.6117C17.637 11.5764 17.6993 11.5093 17.7313 11.4256C18.2915 9.96114 18.2815 8.32292 17.7034 6.86633C17.1252 5.40952 16.0256 4.25121 14.6425 3.64228C13.2594 3.03335 11.7043 3.02262 10.3139 3.6127C10.1482 3.68302 10.0682 3.8812 10.1348 4.05568C10.2015 4.23016 10.3899 4.31446 10.5555 4.24434C11.7881 3.72111 13.1669 3.73064 14.3931 4.27048C15.6192 4.81031 16.5942 5.83732 17.1068 7.12879C17.6193 8.42042 17.6284 9.87261 17.1316 11.1711C17.065 11.3454 17.1451 11.5438 17.3107 11.6141L17.3107 11.6141Z" fill="#63677D" />
      <path d="M19.9623 12.6814C20.0419 12.7153 20.1308 12.7143 20.2097 12.679C20.2886 12.6435 20.3509 12.5767 20.383 12.493C21.2199 10.3046 21.2047 7.85731 20.3409 5.6805C19.4772 3.50391 17.8341 1.77335 15.7676 0.863478C13.7014 -0.0463895 11.3777 -0.062212 9.30036 0.819302C9.13702 0.891037 9.05892 1.08781 9.1251 1.26066C9.19128 1.43372 9.37713 1.51843 9.542 1.45074C11.4618 0.63612 13.6089 0.650697 15.5187 1.49147C17.4283 2.33245 18.9467 3.93171 19.7449 5.94313C20.5432 7.95439 20.557 10.2161 19.7836 12.2384C19.7515 12.3221 19.7524 12.4159 19.7859 12.499C19.8196 12.5821 19.8831 12.6477 19.9625 12.6814L19.9623 12.6814Z" fill="#63677D" />
    </svg>

  </defs>
  <defs>
    <svg id="report" width="20" height="21" viewBox="0 0 20 21" fill="none"
      xmlns="http://www.w3.org/2000/svg">
      <path d="M17.8725 11.8627C17.7471 16.9237 13.7872 21 8.93812 21C4.00953 21 0 16.7898 0 11.6147C0 6.5229 3.8822 2.36524 8.70194 2.2334V11.6147C8.70194 11.752 8.80751 11.8626 8.93806 11.8626H17.872L17.8725 11.8627Z" fill="#63677D" />
      <path d="M19.9995 9.13381H11.3008V0C16.0427 0.129802 19.8758 4.15506 19.9995 9.13381Z" fill="#63677D" />
    </svg>

  </defs>

  <defs>
    <svg id="setting" width="20" height="20" viewBox="0 0 20 20" fill="none"
      xmlns="http://www.w3.org/2000/svg">
      <path d="M7.99982 0L7.52322 2.50002C6.42182 2.83002 5.42608 3.37744 4.57789 4.08474L2.08598 3.16966L0 6.42103L2 8.11009C1.84306 8.71562 1.75778 9.34839 1.75778 9.99992C1.75778 10.6516 1.84306 11.2844 2 11.8897L0 13.5788L2.08598 16.8303L4.57807 15.9153C5.42626 16.6228 6.422 17.1702 7.5234 17.5L8 20H12L12.4766 17.5C13.578 17.17 14.5737 16.6226 15.4219 15.9153L17.914 16.8303L20 13.5788L18.0079 11.8825C18.1632 11.2796 18.2422 10.6485 18.2422 10.0001C18.2422 9.35158 18.1632 8.72046 18.0079 8.11779L20 6.42146L17.914 3.16991L15.4219 4.085C14.5737 3.37748 13.578 2.83025 12.4766 2.50028L12 0.000255122H8L7.99982 0ZM9.99982 5.71424C12.4851 5.71424 14.4997 7.63297 14.4997 9.99992C14.4997 12.3669 12.4851 14.2856 9.99982 14.2856C7.51456 14.2856 5.49992 12.3669 5.49992 9.99992C5.49992 7.63297 7.51456 5.71424 9.99982 5.71424Z" fill="#63677D" />
    </svg>

  </defs>

  <defs>
    <svg id="circle"
      xmlns="http://www.w3.org/2000/svg" viewBox="0 0 1000 200">

      <circle r="60" cy="97" cx="497" stroke-width="400" stroke="#63677d" fill="#63677d" />
    </svg>
  </defs>

  <defs>
    <svg id="attendance" viewBox="0 0 18 18" fill="none"
      xmlns="http://www.w3.org/2000/svg" fit="" height="100%" width="100%" preserveAspectRatio="xMidYMid meet" focusable="false">
      <path d="M14.6659 0.666508C15.5902 0.666508 16.331 1.41061 16.331 2.33492C16.331 3.25924 15.5902 4.00006 14.6659 4.00006C13.7416 4.00006 13 3.25924 13 2.33492C13 2.27719 13.0028 2.21991 13.0085 2.16366C13.0933 1.3203 13.7993 0.666504 14.6659 0.666504L14.6659 0.666508Z" fill="#63677D"></path>
      <path d="M8.99945 3.92323e-06C10.2919 3.92323e-06 11.3319 1.04259 11.3319 2.33501C11.3319 3.62743 10.292 4.66746 8.99945 4.66746C7.70702 4.66746 6.66699 3.62755 6.66699 2.33501C6.66699 2.25422 6.67146 2.17402 6.67934 2.09545C6.79838 0.91597 7.78786 0 8.99945 0L8.99945 3.92323e-06Z" fill="#63677D"></path>
      <path d="M3.33383 0.666508C4.25815 0.666508 4.9997 1.41061 4.9997 2.33492C4.9997 3.25924 4.25811 4.00006 3.33383 4.00006C2.40956 4.00006 1.66797 3.25924 1.66797 2.33492C1.66797 2.27719 1.6708 2.21991 1.67645 2.16366C1.76126 1.3203 2.46729 0.666504 3.33386 0.666504L3.33383 0.666508Z" fill="#63677D"></path>
      <path d="M8.99956 11.332C8.88842 11.332 8.77905 11.3383 8.67088 11.3489C8.62684 11.3532 8.58414 11.3612 8.54069 11.3672C8.47686 11.3759 8.41302 11.3841 8.35053 11.3965C8.29458 11.4075 8.24013 11.4224 8.18522 11.4362C8.13865 11.4478 8.09164 11.4584 8.04596 11.4719C7.9848 11.4902 7.92528 11.5122 7.86562 11.5338C7.82649 11.5479 7.78691 11.5606 7.74837 11.5761C7.69362 11.5982 7.64035 11.6234 7.58693 11.6484C7.54452 11.6683 7.50152 11.6874 7.46001 11.7089C7.40838 11.7359 7.35839 11.7653 7.30839 11.7948C7.26986 11.8176 7.23132 11.8403 7.19382 11.8644C7.14294 11.8973 7.09354 11.9318 7.04473 11.9674C7.01096 11.9918 6.97718 12.0165 6.94445 12.0422C6.8949 12.0811 6.84654 12.1217 6.79937 12.1632C6.76991 12.1891 6.7412 12.2153 6.71278 12.2421C6.6665 12.2856 6.62157 12.3306 6.57797 12.3767C6.55044 12.4059 6.52366 12.4359 6.49732 12.466C6.45492 12.514 6.4137 12.5632 6.37427 12.6137C6.35255 12.6414 6.33187 12.67 6.31103 12.6984C6.26952 12.7551 6.2286 12.8127 6.19066 12.8722C6.17429 12.8978 6.15882 12.9241 6.14319 12.9503C6.106 13.0121 6.07014 13.0747 6.03695 13.1391C6.02163 13.1689 6.00794 13.1998 5.99336 13.2302C5.9636 13.2928 5.93414 13.3556 5.9081 13.4203C5.89471 13.4538 5.8834 13.4885 5.87105 13.5224C5.84695 13.5886 5.82329 13.6548 5.80335 13.723C5.79547 13.7496 5.78966 13.7769 5.78252 13.8036C5.76169 13.882 5.74175 13.9608 5.72657 14.0413C5.72449 14.0518 5.72315 14.0627 5.72137 14.0732C5.70411 14.1686 5.68982 14.2653 5.68089 14.3635C5.67197 14.4632 5.66602 14.5641 5.66602 14.6662C5.66602 16.5109 7.15483 17.9999 8.99957 17.9999C10.8443 17.9999 12.3339 16.5109 12.3339 14.6662C12.3339 14.5619 12.3275 14.4589 12.3182 14.357C12.3097 14.2658 12.2961 14.1758 12.2804 14.0869C12.2778 14.0713 12.2763 14.0554 12.2733 14.0401C12.2563 13.9506 12.2346 13.8629 12.2108 13.7764C12.2066 13.7612 12.2034 13.7458 12.199 13.7307C12.1761 13.6517 12.1488 13.5748 12.1203 13.4985C12.1116 13.4749 12.1035 13.4513 12.0943 13.4281C12.066 13.3573 12.034 13.2887 12.0012 13.2204C11.9884 13.1937 11.9763 13.1666 11.9628 13.1403C11.9314 13.0795 11.8974 13.0207 11.8625 12.9621C11.8431 12.9293 11.8244 12.8963 11.8039 12.8643C11.769 12.8101 11.7317 12.7575 11.6939 12.7055C11.6713 12.6744 11.6487 12.6433 11.6249 12.6131C11.5838 12.5605 11.5409 12.5088 11.4967 12.4588C11.4738 12.4331 11.4506 12.4077 11.427 12.3827C11.3819 12.3346 11.3356 12.2879 11.2877 12.2426C11.2579 12.2145 11.2274 12.187 11.1966 12.1601C11.1504 12.1194 11.103 12.08 11.0547 12.0422C11.0236 12.0178 10.9916 11.9945 10.9596 11.9712C10.9075 11.9333 10.855 11.8961 10.8008 11.8611C10.7677 11.84 10.7337 11.8201 10.6998 11.8C10.6457 11.7678 10.5912 11.736 10.5353 11.707C10.497 11.6872 10.4577 11.6693 10.4186 11.6509C10.3634 11.6249 10.3084 11.5991 10.2514 11.5761C10.2113 11.5598 10.1698 11.5464 10.1291 11.5319C10.0716 11.5112 10.0145 11.49 9.95586 11.4726C9.9078 11.4582 9.8584 11.447 9.80945 11.4348C9.75618 11.4216 9.70336 11.4072 9.6492 11.3965C9.58671 11.3841 9.52288 11.3759 9.45919 11.3671C9.41574 11.3612 9.37289 11.3532 9.329 11.3488C9.22067 11.3383 9.11072 11.332 8.99957 11.332L8.99956 11.332ZM10.5397 13.1137C10.6327 13.1102 10.7229 13.146 10.7885 13.212C10.9177 13.3419 10.9177 13.552 10.7885 13.6819L8.90122 15.569C8.85034 15.6195 8.78472 15.6521 8.71374 15.6622C8.70452 15.6637 8.69514 15.6647 8.68577 15.6655C8.59114 15.671 8.49859 15.636 8.43133 15.569L7.25303 14.3902C7.19039 14.3277 7.15513 14.2429 7.15513 14.1542C7.15513 14.0657 7.19039 13.9808 7.25303 13.9182C7.3124 13.8581 7.39245 13.8227 7.47696 13.8193C7.56907 13.8169 7.65819 13.8527 7.72306 13.9182L8.66627 14.8616L10.3158 13.212C10.3753 13.1521 10.4554 13.117 10.5397 13.1137L10.5397 13.1137Z" fill="#63677D"></path>
      <path d="M8.99911 6.58398C9.80275 6.58398 10.6043 6.72072 11.271 6.97723C11.3783 7.01875 11.4825 7.06309 11.5822 7.1107C11.6112 7.12454 11.6386 7.13942 11.6668 7.1537C11.7524 7.197 11.8348 7.24253 11.9135 7.29044C11.9408 7.30696 11.9678 7.32362 11.9942 7.34058C12.0864 7.4004 12.1744 7.46215 12.2552 7.52806C12.2596 7.53163 12.2645 7.53491 12.2688 7.53848C12.3615 7.61496 12.4469 7.69575 12.5227 7.77997C12.5983 7.86403 12.6652 7.95123 12.7238 8.04229C12.7261 8.04586 12.728 8.04973 12.7304 8.0533C12.7805 8.13245 12.822 8.21533 12.8587 8.30074C12.8682 8.32335 12.8774 8.34612 12.886 8.36903C12.9137 8.44239 12.935 8.51902 12.9524 8.59758C12.9582 8.62421 12.9659 8.64981 12.9707 8.67703C12.9887 8.78029 13 8.88683 13 8.99991V13.9993H12.9167C12.6371 12.3461 11.3547 11.0321 9.71142 10.7327C9.69937 10.7305 9.68702 10.7296 9.67496 10.7275C9.57527 10.7103 9.47513 10.6942 9.37291 10.6845C9.25016 10.6725 9.12547 10.6656 8.9993 10.6656C8.87238 10.6656 8.74769 10.6723 8.62434 10.6845C8.52212 10.6941 8.42213 10.7103 8.32229 10.7275C8.31024 10.7298 8.29789 10.7311 8.28583 10.7333C6.63692 11.0324 5.33932 12.344 5.05958 13.9993H4.99902V8.9999C4.99902 8.88697 5.00974 8.78028 5.02774 8.67702C5.0325 8.6489 5.04054 8.62241 5.04664 8.59504C5.06419 8.51707 5.08547 8.44074 5.113 8.36783C5.12088 8.34655 5.12966 8.32557 5.13844 8.30475C5.17653 8.21532 5.21953 8.12843 5.2725 8.0457C5.33157 7.95345 5.39972 7.86521 5.4762 7.7801C5.55194 7.69589 5.6369 7.61509 5.72944 7.53861C5.73376 7.53504 5.73867 7.53177 5.74313 7.5282C5.82259 7.46333 5.90904 7.40232 5.99965 7.3434C6.02986 7.3239 6.06081 7.30501 6.09205 7.28611C6.16124 7.24415 6.23371 7.20472 6.3081 7.16634C6.34857 7.1455 6.38845 7.12363 6.43055 7.10384C6.50718 7.06754 6.58812 7.03436 6.66951 7.00162C7.34757 6.72993 8.17143 6.58411 8.99915 6.58411L8.99911 6.58398Z" fill="#63677D"></path>
      <path d="M14.6661 5.74951C15.5373 5.74951 16.4061 5.93386 17.0252 6.27162C17.6443 6.60923 17.9998 7.05248 17.9998 7.66655V12.666H13.6643V8.99973C13.6643 8.88084 13.6536 8.76597 13.6377 8.65274C13.6349 8.63221 13.632 8.61182 13.6286 8.59159C13.6097 8.4785 13.5841 8.36825 13.5505 8.26156C13.5503 8.26112 13.5506 8.26067 13.5505 8.26022C13.5502 8.25933 13.5502 8.25844 13.5499 8.25769C13.4402 7.91146 13.2565 7.60032 13.0174 7.3346C12.9949 7.30975 12.9666 7.29026 12.9425 7.2669C12.7133 7.0269 12.4435 6.818 12.1419 6.64777C12.0987 6.62337 12.0522 6.60254 12.0078 6.57948C12.6156 6.08609 13.5907 5.74952 14.6663 5.74952L14.6661 5.74951Z" fill="#63677D"></path>
      <path d="M3.33351 5.74951C4.40957 5.74951 5.38401 6.08593 5.99198 6.57948C5.94764 6.60254 5.90107 6.62352 5.85792 6.64777C5.55423 6.81903 5.28149 7.02929 5.05074 7.27136C5.02857 7.29308 5.00253 7.31138 4.9817 7.33444C4.74571 7.59661 4.56403 7.90314 4.45319 8.24386C4.45051 8.25219 4.44738 8.26023 4.44471 8.26856C4.41197 8.37301 4.38712 8.48089 4.36852 8.59144C4.3651 8.61212 4.36242 8.63311 4.35945 8.65393C4.34353 8.76687 4.33207 8.88129 4.33207 8.99973V12.666H0V7.66655C0 7.05248 0.352786 6.60922 0.971926 6.27147C1.5909 5.93386 2.46238 5.74951 3.33356 5.74951L3.33351 5.74951Z" fill="#63677D"></path>
    </svg>
  </defs>
</svg>
