<svg xmlns="http://www.w3.org/2000/svg" xmlns:xlink="http://www.w3.org/1999/xlink" width="78" height="68" viewBox="0 0 78 68">
  <defs>
    <filter id="Rectangle_1221" x="0" y="0" width="78" height="68" filterUnits="userSpaceOnUse">
      <feOffset dy="3" input="SourceAlpha"/>
      <feGaussianBlur stdDeviation="3" result="blur"/>
      <feFlood flood-color="#aaa" flood-opacity="0.2"/>
      <feComposite operator="in" in2="blur"/>
      <feComposite in="SourceGraphic"/>
    </filter>
  </defs>
  <g id="Group_3625" data-name="Group 3625" transform="translate(-22.19 -30)">
    <g transform="matrix(1, 0, 0, 1, 22.19, 30)" filter="url(#Rectangle_1221)">
      <rect id="Rectangle_1221-2" data-name="Rectangle 1221" width="60" height="50" rx="10" transform="translate(9 6)" fill="#ad5389"/>
    </g>
    <g id="Icon_feather-users" data-name="Icon feather-users" transform="translate(47.692 50.5)">
      <path id="Path_4482" data-name="Path 4482" d="M20.648,29.681V27.287A4.787,4.787,0,0,0,15.861,22.5H6.287A4.787,4.787,0,0,0,1.5,27.287v2.394" transform="translate(-1.5 -8.139)" fill="none" stroke="#fff" stroke-linecap="round" stroke-linejoin="round" stroke-width="2"/>
      <path id="Path_4483" data-name="Path 4483" d="M17.074,9.287A4.787,4.787,0,1,1,12.287,4.5,4.787,4.787,0,0,1,17.074,9.287Z" transform="translate(-2.713 -4.5)" fill="none" stroke="#fff" stroke-linecap="round" stroke-linejoin="round" stroke-width="2"/>
      <path id="Path_4484" data-name="Path 4484" d="M33.59,29.721V27.328A4.787,4.787,0,0,0,30,22.7" transform="translate(-7.261 -8.179)" fill="none" stroke="#fff" stroke-linecap="round" stroke-linejoin="round" stroke-width="2"/>
      <path id="Path_4485" data-name="Path 4485" d="M24,4.7a4.787,4.787,0,0,1,0,9.271" transform="translate(-6.048 -4.54)" fill="none" stroke="#fff" stroke-linecap="round" stroke-linejoin="round" stroke-width="2"/>
    </g>
  </g>
</svg>
