<svg xmlns="http://www.w3.org/2000/svg" width="40.976" height="56" viewBox="0 0 40.976 56">
  <g id="image-svgrepo-com_1_" data-name="image-svgrepo-com (1)" transform="translate(-66)">
    <path id="SVGCleanerId_0" d="M104.244,0H68.732A2.683,2.683,0,0,0,66,2.732V39.154L83.574,56h20.67a2.683,2.683,0,0,0,2.732-2.732V2.732A2.683,2.683,0,0,0,104.244,0Z" fill="#0ee0b8"/>
    <g id="Group_2879" data-name="Group 2879" transform="translate(66)">
      <path id="SVGCleanerId_0_1_" d="M104.244,0H68.732A2.683,2.683,0,0,0,66,2.732V39.154L83.574,56h20.67a2.683,2.683,0,0,0,2.732-2.732V2.732A2.683,2.683,0,0,0,104.244,0Z" transform="translate(-66)" fill="#0ee0b8"/>
    </g>
    <path id="Path_2758" data-name="Path 2758" d="M106.976,43.616V2.732A2.683,2.683,0,0,0,104.244,0H68.732A2.683,2.683,0,0,0,66,2.732" fill="#09d6b9"/>
    <path id="Path_2759" data-name="Path 2759" d="M230.332,43.616V2.732A2.683,2.683,0,0,0,227.6,0H205.2" transform="translate(-123.356)" fill="#09cebb"/>
    <path id="Path_2760" data-name="Path 2760" d="M200.4,348.8v13.659a1.155,1.155,0,0,0,.091.546l2.094,2c.182,0,.273.091.455.091h14.3L200.4,348.8Z" transform="translate(-119.102 -309.099)" fill="#09d6b9"/>
    <path id="Path_2761" data-name="Path 2761" d="M200.4,348.8v13.659a1.155,1.155,0,0,0,.091.546l2.094,2c.182,0,.273.091.455.091h7.285l-8.2-13.659Z" transform="translate(-119.102 -309.099)" fill="#09cebb"/>
    <path id="Path_2762" data-name="Path 2762" d="M83.574,360.046h0V345.932a2.683,2.683,0,0,0-2.732-2.732H66Z" transform="translate(0 -304.137)" fill="#fff"/>
    <path id="Path_2763" data-name="Path 2763" d="M66,344l17.574,16.754h0V346.732" transform="translate(0 -304.846)" fill="#dcf7f2"/>
    <path id="Path_2764" data-name="Path 2764" d="M67.984,39.154h0V2.732A2.683,2.683,0,0,1,70.715,0H69.532A2.683,2.683,0,0,0,66.8,2.732V39.154h1.184Z" transform="translate(-0.709)" fill="#1cf2c9"/>
    <path id="Path_2765" data-name="Path 2765" d="M165.2,153.385H153.545v-1.093a1.052,1.052,0,0,0-1.093-1.093h-5.828a1.052,1.052,0,0,0-1.093,1.093v1.184a3.584,3.584,0,0,0-2.732,3.369v10.107a3.717,3.717,0,0,0,3.733,3.551h18.576a3.6,3.6,0,0,0,3.733-3.551V156.937A3.576,3.576,0,0,0,165.2,153.385Zm-9.379,13.021a4.371,4.371,0,1,1,4.371-4.371A4.314,4.314,0,0,1,155.821,166.406Z" transform="translate(-68.059 -133.99)" fill="#09cebb"/>
    <path id="Path_2766" data-name="Path 2766" d="M153.2,139.785H141.545v-1.093a1.052,1.052,0,0,0-1.093-1.093h-5.828a1.052,1.052,0,0,0-1.093,1.093v1.184a3.584,3.584,0,0,0-2.732,3.369v10.107a3.717,3.717,0,0,0,3.733,3.551h18.576a3.6,3.6,0,0,0,3.733-3.551V143.246A3.4,3.4,0,0,0,153.2,139.785Zm-9.288,12.93a4.371,4.371,0,1,1,0-8.741,4.432,4.432,0,0,1,4.371,4.371A4.315,4.315,0,0,1,143.912,152.715Z" transform="translate(-57.424 -121.938)" fill="#fff"/>
  </g>
</svg>
